<?xml version="1.0" encoding="utf-8"?>
<!-- Generator: Adobe Illustrator 28.0.0, SVG Export Plug-In . SVG Version: 6.00 Build 0)  -->
<svg version="1.1" id="Layer_1" xmlns="http://www.w3.org/2000/svg" xmlns:xlink="http://www.w3.org/1999/xlink" x="0px" y="0px"
	 viewBox="0 0 1366 768" style="enable-background:new 0 0 1366 768;" xml:space="preserve">
<g>
	<g>
		<path d="M393.68,629.55c-8.89,0-17.34-3.93-25.13-11.67c-3.68-3.65-7.35-7.42-10.91-11.07c-5.38-5.51-10.94-11.2-16.6-16.62
			c-1.97-1.88-5.31-2.55-8.26-3.14l-0.47-0.1c-4.4-0.89-8.89-1.69-13.24-2.46c-4.96-0.88-10.09-1.79-15.09-2.84
			c-7.37-1.55-14.74-3.08-22.12-4.62c-22.86-4.75-46.49-9.65-69.55-15.16c-13.39-3.2-26.87-6.99-39.91-10.65
			c-11.96-3.36-24.32-6.84-36.6-9.85c-22.26-5.46-45.09-10.25-67.17-14.87c-3.96-0.83-7.91-1.66-11.86-2.49
			c-0.19-0.04-0.39-0.06-0.59-0.06c-1.18,0-2.5,0.67-4.18,1.53c-0.93,0.47-1.96,1-3.15,1.51c-0.42-1.35-0.91-2.76-1.41-4.24
			c-1.3-3.83-2.78-8.17-3.62-12.54c-2.1-10.93-3.94-22.1-5.72-32.9c-0.73-4.43-1.46-8.85-2.21-13.27l-0.08-0.47l-3.57,0.41
			l1.87,33.48l-0.46,0.03c-0.5-5.19-0.91-10.47-1.3-15.58c-0.93-12.04-1.9-24.49-4.1-36.54c-2.08-11.34-5.36-22.66-8.53-33.61
			c-1.68-5.8-3.42-11.8-4.96-17.72c-0.98-3.76-1.09-6.81-0.33-9.07c5.05-15.06,1.84-22.85-12.77-30.63c1.42-1.81,2.83-3.6,4.24-5.39
			c3.8-4.83,7.74-9.83,11.48-14.8c1.67-2.22,3.22-4.86,4.6-7.84c5.9-12.72,11.78-25.71,17.47-38.27
			c19.98-44.13,40.64-89.75,66.1-132.34c8.57-14.33,12.49-17.52,26.26-21.35l3-0.84l-18.45-0.87c-2.77-8.38,1.35-15.57,5.7-23.17
			c0.5-0.88,1.01-1.76,1.5-2.64l2.01-0.2c0.13,0.58,0.29,1.16,0.45,1.72c0.45,1.62,0.88,3.14,0.66,4.56c-0.21,1.41-1,2.74-1.83,4.16
			c-0.45,0.76-0.91,1.54-1.28,2.34c-1.48,3.22-1.71,5.52-0.74,7.25c1.01,1.79,3.36,2.88,7.17,3.31c26.69,3.02,50.54,5.96,72.91,8.99
			c3.69,0.5,7.45,0.87,11.08,1.23c10.35,1.03,21.06,2.09,31.34,6.21c8.02,3.21,16.99,4.5,25.67,5.75c4.12,0.59,8.38,1.21,12.48,2.02
			c3.15,0.62,6.2,1.42,9.73,2.34c1.52,0.4,3.11,0.81,4.81,1.24c-0.45,0.91-0.82,1.84-1.19,2.75c-0.84,2.09-1.57,3.89-2.77,4.39
			c-5.94,2.49-7.41,7.23-8.83,11.81c-0.3,0.98-0.62,1.99-0.97,2.98c-4.03,11.2-8.22,22.56-12.26,33.55
			c-4.5,12.21-9.15,24.85-13.61,37.3c-2.95,8.22-5.27,16.87-7.23,24.33c-0.35,1.34,0.14,2.81,0.61,4.23
			c0.2,0.61,0.41,1.24,0.54,1.84l0.11,0.52l0.51-0.15c0.61-0.18,1.34-0.31,2.05-0.43c1.67-0.29,3.4-0.59,4.12-1.66l0.54-0.81
			c2.99-4.44,6.09-9.02,7.51-14.02c1.64-5.77,2.82-11.74,3.97-17.52c0.88-4.45,1.79-9.05,2.9-13.52c0.88-3.54,2.87-5.25,6.09-5.25
			c1.67,0,3.67,0.48,5.95,1.42l0.49,0.2l28.24-82.55l6.41-0.82c0.11,0.14,0.32,0.4,0.31,0.53c-0.52,12.54,4.66,17.32,19.78,18.27
			c3.46,0.22,6.89,1.09,10.53,2.02c1.5,0.38,3.04,0.77,4.63,1.13c-1.17,1.55-2.27,2.91-3.25,4.12c-2.12,2.61-3.8,4.68-4.78,7.05
			c-9.19,22.18-18.75,45.83-30.09,74.43c-2.57,6.48-4.56,12.81-5.91,18.81c-0.29,1.29,0.36,2.68,0.99,4.02
			c0.54,1.15,1.1,2.33,0.99,3.34c-0.31,2.94-1.17,5.85-2.08,8.93c-0.34,1.16-0.7,2.35-1.03,3.58c-5.47-2.64-11.23-3.93-17.59-3.93
			c-5.47,0-10.76,0.92-15.87,1.81c-1.8,0.31-3.59,0.62-5.36,0.89c-0.89,0.13-1.76,0.28-2.61,0.42c-2.43,0.41-4.72,0.79-6.77,0.79
			c-3.18,0-6.7-0.79-8.75-6.64l-0.17-0.48l-0.48,0.17c-1.58,0.57-3.14,1.16-4.68,1.74c-8.64,3.25-16.81,6.32-25.57,6.32
			c-4.27,0-8.37-0.72-12.52-2.21c-1.54-0.55-3.28-0.82-5.3-0.82c-3.3,0-6.92,0.73-10.41,1.44c-2.35,0.48-4.78,0.97-7.06,1.22
			c-0.84,0.09-1.62,0.45-2.38,0.79c-0.3,0.14-0.6,0.27-0.9,0.39c-0.9,0.35-2.06,0.69-3.19,1.02c-2.91,0.85-5.42,1.59-5.59,2.94
			c-0.59,4.64-0.27,10.42,2.41,12.69c6.36,5.4,13.19,9.07,19.23,10.34c19.82,4.16,40.13,7.71,59.76,11.14
			c6.22,1.09,12.45,2.18,18.67,3.28c1.44,0.26,2.93,0.28,4.82,0.31c1.04,0.02,2.21,0.04,3.59,0.1l1.1,0.05l-0.69-0.86
			c-4.12-5.12-9.27-6.22-14.25-7.29c-1.91-0.41-3.76-0.81-5.48-1.42c1.15,0.11,2.31,0.19,3.45,0.26c6.52,0.41,12.67,0.79,16.76,8.11
			c1.06,1.89,6,3.05,9.08,3.05c1.56,0,2.64-0.27,3.21-0.8l0.22-0.21c2.29-2.13,5.42-5.05,5.17-8.52c-0.14-1.99-1.4-3.93-3.75-5.76
			l9.75-2.47l0.08-0.28c0.25-0.93,0.43-1.9,0.61-2.83c0.38-2.03,0.75-3.94,1.71-5.54c12.6-20.87,20.73-43.83,28.58-66.03
			c2.28-6.44,4.63-13.09,7.06-19.59c1.61-4.3,3.43-8.61,5.19-12.78c1.8-4.27,3.67-8.68,5.31-13.09c0.96-2.58,1.6-5.3,2.22-7.94
			c0.53-2.26,1.08-4.59,1.83-6.81c0.38-1.14,1.36-2.14,2.4-3.2c0.5-0.51,1.01-1.03,1.48-1.59l0.34-0.41l-4.84-3.44l5.73-6.24
			c2.98-0.29,5.94-0.63,8.8-0.96c6.56-0.75,12.76-1.47,19.04-1.6c2.45-0.05,5.02-0.08,7.63-0.08c9.71,0,19.33,0.35,30.79,0.87
			c1.47,0.07,2.93,1.02,4.47,2.04c0.6,0.4,1.22,0.8,1.85,1.15l-0.37,1.25l-36.88-2.88l-0.48,2.46l4.65,1.32l-6.7,1.36l1.06,0.67
			c0.32,0.2,0.58,0.4,0.82,0.58c0.5,0.37,0.93,0.69,1.45,0.73c4.01,0.31,8.1,0.55,12.06,0.79c7.81,0.47,15.9,0.96,23.77,1.93
			c20.85,2.56,42.98,5.59,71.77,9.82c8.36,1.23,16.84,2.65,25.04,4.03c14.64,2.46,29.77,5,44.78,6.52
			c3.49,0.36,7.24,0.53,11.47,0.53c5.2,0,10.51-0.26,15.65-0.52c5.14-0.26,10.46-0.52,15.66-0.52c0.55,0,1.11,0,1.66,0.01
			c6.4,0.07,12.13,1.31,16.12,3.49c2.24,1.22,3.63,3.94,5.1,6.82c0.66,1.3,1.35,2.64,2.13,3.86l0.39,0.6l4.09-5.41l1.06,0.15
			c-0.09,1.04-0.15,2.08-0.2,3.1c-0.14,2.52-0.28,5.12-0.94,7.51l-1.42,5.1c-4.06,14.61-8.26,29.73-13.07,44.38
			c-2.85,8.67-6.44,17.29-9.91,25.63c-1.27,3.06-2.54,6.12-3.78,9.18c-0.33,0.82-1.33,3.3-2.48,3.65
			c-8.9,2.68-10.31,9.94-11.68,16.96l-0.07,0.36l-1.85,0l-0.9-14.96l-14,24.36l5.15,3.81l-0.39,0.96l-19.97-4.94l1.61,5.22
			c-0.81-0.2-1.64-0.45-2.44-0.68c-2.07-0.61-4.2-1.24-6.26-1.24c-0.4,0-0.79,0.02-1.16,0.07c-4.33,0.55-8.68,1.46-12.88,2.34
			c-4.53,0.95-9.21,1.93-13.86,2.45c-20.7,2.34-43.09,4.57-70.48,7c-5.32,0.47-10.76,0.68-16.03,0.88
			c-4.84,0.19-9.85,0.38-14.76,0.77c-1.77,0.14-3.45,1.11-5.4,2.23c-0.9,0.52-1.92,1.1-3.04,1.66l-19.36-17.04
			c-1.34-1.94-2.76-4-4.23-6.13c-3.63-5.25-7.75-11.21-11.73-17.1c-3.93-5.81-4.38-11.64-1.31-17.3c0.77-1.42,2.54-3.13,3.59-3.13
			c1.41,0.05,2.79,0.09,4.17,0.13c7.58,0.22,15.43,0.44,22.91,1.77c6.34,1.12,12.69,2.8,18.83,4.43c4.92,1.3,10,2.65,15.07,3.71
			c48.86,10.2,86.5,17.84,122.04,24.78c0.48,0.09,1,0.14,1.54,0.14c3.05,0,6.44-1.51,9.43-2.84l0.93-0.41
			c0.85-0.38,0.76-1.81,0.59-4.41c-0.08-1.14-0.16-2.42-0.17-3.76l9.36-12.86l3.5,4.24l0.39-0.35c7.64-6.96,10.37-15.49,12.91-25.1
			c3.06-11.59,6.79-22.8,10.75-34.67c1.49-4.46,3.02-9.07,4.51-13.69l2.41,5.72l0.33-1.58c1.84-8.91,2.77-18.07,2.92-28.83
			c0.03-2.22-1.86-6.59-3.71-6.83c-9-1.17-18.21-1.93-27.11-2.68c-2.74-0.23-5.49-0.46-8.23-0.7l-0.5-0.04l-0.36,3.89l0.48,0.06
			c2.81,0.34,5.62,0.71,8.43,1.08c6.29,0.83,12.8,1.69,19.24,2.15l0.92,0.06c4.09,0.29,6.34,0.44,6.95,1.39
			c0.57,0.89-0.07,2.91-1.37,6.43l-1.02-5.23l-32.31-1.56l-0.24,1.83l10.02,4.19l-0.32,1.07l-2.26-0.48
			c-1.97-0.42-3.94-0.83-5.91-1.27c-3.46-0.78-6.98-1.66-10.37-2.5c-7.45-1.86-15.16-3.78-22.88-4.82
			c-11.63-1.56-23.54-2.58-35.05-3.56c-5.83-0.5-11.85-1.01-17.77-1.59c-10.61-1.04-21.4-2.14-31.83-3.2
			c-22.4-2.29-45.56-4.65-68.38-6.51c-4.02-0.33-8.32-0.48-13.54-0.48c-3.71,0-7.48,0.08-11.13,0.15
			c-3.65,0.08-7.42,0.15-11.12,0.15c-1.78,0-3.57-0.02-5.35-0.06c-0.19,0-0.38-0.01-0.57-0.01c-5.48,0-8.59,2.11-10.73,7.3
			c-4.07,9.88-8.54,19.81-12.86,29.41c-1.12,2.49-2.24,4.98-3.36,7.47c-1.07,2.38-2.24,4.78-3.37,7.09
			c-2.32,4.75-4.72,9.65-6.36,14.71c-1.22,3.76-1.54,9.56,0.61,13.43c1.92,3.44,2.4,6.91,1.3,9.26c-0.82,1.76-2.45,2.88-4.83,3.33
			c-7.41,1.4-10.13,5.38-8.82,12.9c1.92,11.02-1.38,20.88-10.38,31.05c-2.36,2.67-4.39,5.56-6.54,8.61c-1,1.42-2.01,2.86-3.09,4.33
			l-0.45,0.62c0,0,3.78,0.86,5.19,1.17c2.85,0.64,5.43,1.22,8,1.83c7.32,1.75,14.65,3.48,21.98,5.21
			c19.64,4.64,39.94,9.43,59.79,14.58c5.56,1.44,10.83,3.93,16.4,6.55c2.41,1.14,4.89,2.31,7.46,3.42
			c-4.69,5.46-10.87,31.59-10.29,35.42c0.44,2.87,0.12,6.3-0.95,10.46c-0.89,3.42-2.13,6.75-3.32,9.97
			c-0.5,1.33-0.98,2.63-1.43,3.91l-0.24,0.67l0.71-0.01c1.72-0.02,3.42-0.03,5.14-0.03c36.73,0,73.06,4.84,108.19,9.51
			c22.09,2.94,44.93,5.98,67.51,7.76l-0.4,5.16h23.32l-8.22-18.6l-6.69,10.48c-0.13-1.23-0.31-2.4-0.47-3.46
			c-0.33-2.19-0.67-4.46-0.08-4.89c5.41-3.93,4.95-8.51,4.47-13.36c-0.23-2.33-0.47-4.74-0.05-7.17l0.17-0.97l-0.88,0.44
			c-1.18,0.58-2.23,1.13-3.19,1.63c-2.03,1.06-3.64,1.9-5.35,2.49c-1.19,0.41-2.52,0.48-3.92,0.55c-0.45,0.02-0.9,0.04-1.35,0.08
			c-0.02-0.45-0.06-0.9-0.1-1.35c-0.12-1.4-0.23-2.72,0.11-3.9c0.41-1.41,1.36-3.98,3.14-5.38c6.17-4.84,5.13-10.49,3.26-16.85
			c-3.99-13.57-7.82-27.44-11.52-40.84c-1.13-4.08-2.26-8.16-3.39-12.24c0.44,0.73,0.89,1.45,1.32,2.15
			c2.39,3.88,4.87,7.89,6.54,12.1c4.81,12.12,8.91,24.6,12.7,36.33c1.19,3.68,2.89,7.08,7.32,7.08c1.27,0,2.72-0.27,4.43-0.83
			c2.36-0.77,4.63-1.16,6.75-1.16c6.6,0,12.13,3.8,16.44,11.29c6.23,10.83,12.66,21.78,18.89,32.37
			c6.92,11.79,14.08,23.98,20.99,36.04c3.85,6.72,7.25,13.54,10.54,20.13c1.35,2.71,2.67,5.34,3.95,7.84
			c-0.93,1.3-1.81,2.43-2.67,3.53c-1.82,2.34-3.38,4.36-4.31,6.61c-1,2.43-1.19,5.1-1.33,7.05c-0.04,0.5-0.07,0.95-0.11,1.32
			c-1.82,0.7-3.5,1.3-5.13,1.88c-3.43,1.22-6.39,2.28-9.15,3.75c-8.37,4.47-16.67,9.14-25.45,14.08c-3.33,1.87-6.74,3.79-10.27,5.76
			l1.22-10.78l-103.72,35.21l1.01,3.11l45.38-11.81l0.15,0.51c-3.2,0.99-6.41,1.97-9.61,2.96c-7.23,2.22-14.7,4.52-22.03,6.85
			c-9.07,2.88-18.47,5.28-27.55,7.61c-16.6,4.24-33.76,8.63-49.67,16.12c-13.25,6.24-27.09,11.87-40.48,17.32
			c-6.44,2.62-13.1,5.33-19.61,8.07C403.22,628.48,398.33,629.55,393.68,629.55z M377.02,534.6c-10.69,9.97-15.44,21.39-18.67,31.27
			c-0.42,1.29,0.23,3.23,1.08,4.29c1.3,1.63,1.8,2.93,1.54,3.99c-0.39,1.57-2.45,2.58-4.9,3.64c-1.37,0.59-2.64,1.39-3.86,2.17
			c-0.54,0.34-1.09,0.68-1.63,1l-0.49,0.29l0.34,0.45c2.35,3.1,4.67,6.17,6.96,9.2c6.7,8.88,13.04,17.26,19.64,25.64
			c1.56,1.98,4.3,3.8,7.14,4.74c2.33,0.77,4.68,1.17,6.99,1.17c5.44,0,10.89-2.12,17.16-6.68c1.01-0.74,2.02-1.49,3.03-2.25
			c4.07-3.04,8.27-6.19,12.89-8.21c19.87-8.72,35.36-15.04,50.23-20.49c19.75-7.24,39.89-14.45,59.37-21.43
			c29.55-10.59,60.12-21.54,89.98-32.79c10.21-3.84,19.95-9.29,29.38-14.55c3.23-1.8,6.55-3.65,9.88-5.44l-13.74,12.01l3.4,3.48
			l15.09-13.68l-2.84-2.83c0.5-0.26,1.94-1.01,1.94-1.01l-7.33-13.89l0.48-0.23l11.42,12.32l4.16-1.48l-0.08-0.42
			c-0.21-1.09-0.33-2.29-0.44-3.45c-0.25-2.65-0.52-5.39-1.98-7.37c-2.47-3.34-5.5-6.36-8.44-9.27c-1.95-1.94-3.97-3.94-5.79-6.01
			c-1.88-2.13-3.48-4.57-5.03-6.93c-0.62-0.95-1.24-1.89-1.88-2.82l1.04-0.69l13.09,13.72l3.24-2.4l-49.62-71.5l-0.42,0.47
			c-11.35,12.53-11.58,17.23-1.32,27.91c2.35,2.45,4.33,5.19,5.78,7.19c0.43,0.6,0.81,1.12,1.13,1.54l-4.03,12.53l-4.41,0.22
			c-3.99,0.2-8.43,0.43-12.86,0.63c-4.97,0.22-9.94,0.44-14.91,0.65c-10.74,0.46-21.85,0.94-32.77,1.52
			c-2.81,0.15-5.6,0.63-8.83,1.19c-1.56,0.27-3.24,0.56-5.09,0.84c-2.62-2.78-9.22-5.17-14.37-5.17c-1.9,0-3.45,0.33-4.59,0.98
			c-6.34,3.6-11.34,6.65-15.76,9.59c-20.66,13.76-42.65,28.44-64.38,43.25c-2.99,2.04-5.7,3.03-8.29,3.03
			c-1.86,0-3.66-0.54-5.36-1.6c-3.33-2.08-6.5-4.54-9.56-6.92c-2.52-1.96-5.14-3.99-7.84-5.81c-1.82-1.22-5.24-3.28-7.72-3.28
			c-0.45,0-0.87,0.07-1.23,0.21c-0.86,0.33-1.73,0.66-2.6,0.98c-7.48,2.82-15.21,5.74-20.93,10.69c-4.66,4.03-6.6,11.56-8.05,18.3
			c-0.4,1.86,1.96,4.02,4.03,5.93C375.98,533.58,376.57,534.12,377.02,534.6z M314.98,578.2c1.34,0.49,2.64,1.55,4.01,2.68
			c2.16,1.77,4.39,3.6,7.22,3.6c2.36,0,4.75-1.29,7.33-3.95l0.69-0.71l-23.6-3.21L314.98,578.2z M237.02,558.06
			c0.97,0.29,1.72,0.49,2.48,0.58c4.44,0.54,8.97,0.99,13.36,1.42c9.44,0.93,19.19,1.89,28.55,3.83
			c10.78,2.23,21.24,5.33,32.31,8.61c4.8,1.42,9.77,2.9,14.81,4.31l0.82,0.23l-0.2-0.83c-0.57-2.35-0.5-4,0.2-4.89
			c0.82-1.04,2.44-1.12,4.33-1.12l0.8,0c1.42,0,2.78-0.04,3.82-0.57l0.19-0.1l0.06-0.21c8.24-28.51,20.1-56.17,31.58-82.92
			c13.78-32.12,28.02-65.33,35.98-100.06l1.37,0.28l-1.27,17.61l1.06-1.63c4.9-7.54,6.43-14.41,4.42-19.89
			c-1.92-5.22-6.84-9.05-14.63-11.37c-23.85-7.12-48.71-12.46-70.15-16.9c-6.64-1.38-13.66-1.51-20.44-1.65
			c-3.01-0.06-6.12-0.12-9.15-0.29l-0.35-0.35l6.06-2.07l-1.59-0.42c-8.27-2.21-15.82-3.63-23.11-5.01
			c-2.82-0.53-5.6-1.05-8.37-1.61l-12.5-2.52c-27.68-5.57-56.31-11.34-84.32-17.59c-5.19-1.16-11.03-4.75-15.23-9.38
			c-0.75-0.83,0.17-3.28,1.05-5.65c0.72-1.94,1.47-3.94,1.64-5.7c0.17-1.87-0.69-3.74-1.37-5.25c-0.18-0.4-0.35-0.75-0.47-1.07
			c0.73-0.54,1.52-1.1,2.35-1.7c2.36-1.7,5.04-3.62,7.54-5.76c0.84-0.72,1.63-1.55,2.41-2.36c1.98-2.07,3.85-4.02,6.25-4.02
			c1.57,0,3.27,0.83,5.19,2.55c0.46,0.41,1.18,0.6,2.27,0.6c0.49,0,1-0.04,1.44-0.08c3.51-0.32,7.02-0.64,10.53-0.95
			c11.64-1.03,23.68-2.1,35.46-3.65c3.35-0.44,8.16-3.35,9.36-6.45c10.34-26.73,22.24-57.8,32.69-88.46c1.7-5,1.44-10.65,1.18-16.12
			c-0.12-2.48-0.24-5.05-0.17-7.51l0.01-0.29l-0.25-0.15c-0.58-0.36-1.18-0.81-1.75-1.25c-1.31-1-2.67-2.03-4.2-2.23
			c-12.77-1.68-26.06-3.19-40.61-4.62c-0.2-0.02-0.4-0.03-0.59-0.03c-1.39,0-2.8,0.44-4.17,0.87c-0.69,0.22-1.41,0.44-2.1,0.6
			c-0.59,0.04-1.25,0.14-1.91,0.23c-1.02,0.14-2.07,0.28-3.07,0.28c-0.45,0-0.85-0.03-1.24-0.09c-0.75-0.11-1.48-0.57-2.26-1.06
			c-0.88-0.55-1.79-1.12-2.8-1.2c-8.37-0.64-16.89-1.21-25.12-1.77c-13.03-0.88-26.5-1.79-39.71-2.97
			c-3.24-0.29-6.41-0.55-9.46-0.55c-7.58,0-16.07,1.4-21.52,11.8c-5.57,10.63-11.35,21.38-16.93,31.77
			c-3.03,5.64-6.07,11.29-9.08,16.94l-0.25,0.45c-0.57,1.02-1.21,2.17-0.81,2.99c2.64,5.35-0.1,9.15-3.01,13.17
			c-0.58,0.8-1.15,1.6-1.69,2.41c-21.89,33.35-37.52,68.58-46.47,104.72c-0.03,0.13-0.23,0.31-0.41,0.47l-3.77-5.51l-0.39,0.73
			c-7.96,14.92-7.71,19.07,1.57,26.15l0.13,0.1h0.17c1.57,0,2.97-0.05,4.2-0.1c1.01-0.04,1.93-0.07,2.79-0.07
			c1.35,0,2.37,0.09,3.3,0.29c2.78,0.6,5.5,2.13,7.56,3.4c4.34,2.67,9.14,3.96,14.68,3.96c3.71,0,7.44-0.56,11.04-1.27l-4.43,2.45
			l1.27,0.29c5.56,1.28,11.12,2.63,16.49,3.94c13.88,3.37,27,6.55,40.56,8.8c3.83,0.63,7.41,1.81,10.87,2.94
			c2.74,0.89,5.57,1.82,8.44,2.45c14.53,3.16,29.51,5.45,44,7.66c3.1,0.47,6.21,0.95,9.31,1.43c7.18,1.12,14.51,2.12,21.59,3.1
			c7.55,1.04,15.36,2.11,23.01,3.32c7.35,1.16,14.79,2.6,21.98,4c3.1,0.6,6.21,1.21,9.31,1.79l-0.27,1.19
			c-1.69-0.33-3.38-0.68-5.07-1.03c-4.16-0.86-8.46-1.75-12.74-2.34c-4.35-0.6-8.81-0.92-13.12-1.24c-1.92-0.14-3.84-0.28-5.76-0.44
			l-0.46-0.04l-0.61,3.45l0.45,0.11c2.72,0.67,5.46,1.31,8.19,1.96c6.08,1.43,12.37,2.92,18.46,4.66c5.51,1.58,9.67,2.28,13.51,2.28
			c5.45,0,10.21-1.49,14.55-4.54c0.17,0.02,0.41,0.08,0.65,0.14c0.02,0.01,0.04,0.01,0.06,0.02l-1.06,5.55l9.91-5.69
			c0.62,4.89-2.32,5.56-5.7,6.33c-2.18,0.49-4.44,1.01-5.81,2.73l-0.25,0.32l5.63,6.8c-2.95,2.29-5.87,4.68-8.69,7
			c-6.6,5.41-13.42,11.01-20.81,15.37c-1.57,0.92-3.13,1.89-4.71,2.85c-8.72,5.35-17.73,10.89-28.62,10.89
			c-2.7,0-5.47-0.35-8.23-1.04l2.96-6.08l-0.48-0.21c-3.24-1.39-6.41-2.76-9.55-4.12c-8.51-3.69-16.54-7.17-24.8-10.42
			c-1.5-0.59-3.17-0.67-4.46-0.67c-0.7,0-1.4,0.03-2.11,0.05c-0.7,0.03-1.39,0.05-2.08,0.05c-0.32,0-0.63-0.01-0.94-0.02
			c-4.48-0.86-8.72-2.92-13.21-5.11c-0.88-0.43-1.76-0.86-2.65-1.28c-15.33-7.26-31.4-13.67-46.94-19.86
			c-26.61-10.61-54.13-21.57-78.78-37.19c-3.36-2.13-7.51-3.15-11.52-4.14c-1.83-0.45-3.73-0.92-5.51-1.48l-0.33-0.11l-2.76,3.61
			L60.78,413l-0.3,0.21l-31.25-34.47l-1.89,1.17l8.89,48.96l3.3-0.29v-17.53l1.67-0.11c0.11,0.61,0.23,1.22,0.35,1.83
			c0.31,1.58,0.64,3.22,0.74,4.83c0.55,8.22,1.06,16.43,1.58,24.65c0.72,11.46,1.46,23.32,2.29,34.97
			c1.77,24.93,6.83,31.41,29.89,37.5l-5.02,6.21l0.51,0.29c10.9,6.29,22.82,8.74,34.35,11.12c5.69,1.17,11.58,2.39,17.26,4.05
			l0.64,0.19v-0.08c0.17,0.03,0.35,0.06,0.54,0.07c1.09,0.36,2.32,0.56,3.57,0.59c0,0,0,0,0.01,0c0.51,0,0.98-0.07,1.45-0.21
			c0.29,0.08,0.61,0.13,0.99,0.16c1.7,0.55,3.6,0.97,6.16,1.36c0.27,0.04,0.55,0.06,0.82,0.08c1.16,0.28,2.44,0.48,3.69,0.68
			c1.24,0.2,2.52,0.4,3.76,0.68c1.31,0.3,2.61,0.62,3.9,0.93c3.62,0.88,7.37,1.8,11.23,2.33l1.32,0.18
			c0.68,0.74,1.59,1.25,2.71,1.51c2.34,0.54,4.73,0.77,7.04,1c1.73,0.17,3.51,0.34,5.25,0.64c0.54,0.09,1.08,0.2,1.63,0.3
			c1.35,0.25,2.75,0.52,4.17,0.65c0.19,0.02,0.41,0.03,0.66,0.03c0.3,0,0.64-0.01,0.99-0.02l46.02,9.56l0.06,0.03
			c0.07,0.04,0.14,0.07,0.22,0.1c2.09,0.84,4.54,0.91,6.67,0.91L237.02,558.06z M356.42,523.11l4.74,1.61l26.27-65.68l-3.79-1.4
			L356.42,523.11z M56.36,509.96c0.53,7.92,3.4,11.45,9.29,11.45c1.42,0,2.89-0.18,4.27-0.38l0.23-0.03l1.93-3.12l-15.78-8.83
			L56.36,509.96z M407.04,486.55c3.15,0,5.89,1.82,8.36,5.57c0.61,0.92,1.21,1.85,1.81,2.79c1.92,2.98,3.9,6.06,6.21,8.83
			c2.32,2.78,4.77,4.13,7.5,4.13c2.01,0,4.13-0.72,6.49-2.2c14.73-9.23,29.83-18.43,44.44-27.32c7.27-4.43,14.54-8.85,21.79-13.3
			c1.15-0.71,2.18-1.59,3.18-2.45c0.46-0.4,0.92-0.79,1.4-1.17l0.29-0.23l-1.23-3.04l-37.34,3.08l-0.18-0.97l25.83-6.35l-0.05-3.25
			l-0.43-0.05c-5.7-0.71-11.4-1.4-17.1-2.09c-14.64-1.78-29.78-3.62-44.64-5.64c-0.92-0.12-1.78-0.19-2.57-0.19
			c-4.88,0-7.65,2.35-8.48,7.19c-1.27,7.46-2.39,15.03-3.57,23.04c-0.5,3.43-1.03,6.98-1.58,10.68c-0.29,0.13-0.61,0.19-0.96,0.19
			c-1.24,0-2.74-0.81-4.33-1.67c-2.03-1.09-4.33-2.33-6.81-2.33c-2.25,0-4.29,1-6.23,3.07c-1.62,1.73-3.94,2.83-6.39,3.99
			c-4.59,2.17-9.79,4.64-11.87,12.01l-0.32,1.15l1.05-0.58c2.42-1.34,4.67-2.56,6.8-3.72c4.49-2.43,8.37-4.53,12.15-6.87
			C402.73,487.32,405.01,486.55,407.04,486.55z M414,438.69c-1.91,0-5,1.98-5.91,3.78c-3.07,6.07-5.18,11.54-6.47,16.72
			c-0.4,1.61,0.74,3.46,1.84,5.24c0.47,0.76,0.96,1.55,1.29,2.28l0.21,0.45l0.45-0.21c0.98-0.45,2.15-0.84,3.29-1.22
			c2.64-0.88,5.36-1.79,6.24-3.63c1.7-3.57,2.4-7.44,3.21-11.93c0.34-1.91,0.7-3.88,1.16-5.95l0.05-0.24l-0.15-0.19
			c-0.28-0.35-0.6-0.84-0.93-1.35c-0.92-1.44-2.05-3.23-3.69-3.68C414.42,438.71,414.21,438.69,414,438.69z M482.32,446.19
			l29.24,4.16l0.53-3.72l-29.3-3.75L482.32,446.19z M174.76,402.42c0.77,3.67,1.57,7.46,4.01,9.66
			c13.15,11.92,30.06,20.46,53.21,26.89l1.12,0.32c2.43,0.69,5.19,1.48,7.57,1.48c1.14,0,2.08-0.17,2.9-0.53
			c7.23-3.15,14.14-7.29,19.98-11.96c2.12-1.7,3.03-3.98,2.49-6.26c-0.65-2.71-3.18-4.83-6.61-5.56
			c-14.62-3.07-28.02-5.63-40.95-7.82c-8.09-1.37-16.36-2.49-24.36-3.57c-3.43-0.46-6.86-0.93-10.28-1.41l0.13-0.93l39.66,3.5
			l0.28-2.01l-47.16-9.12l-3.3,2.13l0.12,0.37c0.22,0.66,0.41,1.36,0.58,2.07c-0.17-0.39-0.33-0.81-0.49-1.22
			c-0.79-2-1.53-3.9-2.87-4.17c-7.1-1.46-14.41-2.49-21.47-3.48c-2.4-0.34-4.8-0.68-7.19-1.03l-0.44-0.07l-1,3.73l31.44,10.5
			l2.42-2.54C174.61,401.72,174.69,402.07,174.76,402.42z M118.81,389.49l53.49,26.08l2.07-3.9l-53.62-25.84L118.81,389.49z
			 M81.69,384.57l22.6,9.47l1.72-3.79l-22.51-9.66L81.69,384.57z M118.41,380.6c15.81,6.34,32.65,8.04,50.48,9.84l1.22,0.12
			l-0.63-0.89c-2.89-4.13-33.21-10.52-46.27-10.52c-2.12,0-3.73,0.17-4.77,0.51l-0.72,0.23l0.8-2.15l-18.05-5.76l-1.44,3.96
			l17.67,6.72l0.89-2.39L118.41,380.6z M411.75,300.93c-2.64,0-4.34,0.65-5.21,2c-1.12,1.74-0.75,4.49,1.15,8.64
			c5.32,11.6,12.23,22.36,17.65,30.45c1.69,2.52,6.54,4.21,10,4.21c0.23,0,0.45-0.01,0.66-0.02c10.43-0.71,21-1.83,31.22-2.91
			c5.2-0.55,10.59-1.12,15.88-1.63l2.16-0.21c12.64-1.21,25.71-2.47,38.59-3.36c10.12-0.71,20.43-1.21,30.4-1.7
			c4.43-0.22,8.87-0.44,13.3-0.67l0.39-0.02l0.65-3.49l-0.42-0.13c-0.73-0.23-1.45-0.47-2.18-0.71c-1.56-0.52-3.16-1.06-4.8-1.42
			c-5.02-1.1-10.04-2.23-15.06-3.35c-13.57-3.04-27.6-6.18-41.49-8.88c-28.43-5.54-56.72-10.65-88.11-16.28
			C414.67,301.09,413.1,300.93,411.75,300.93z M166.27,306.78c-2.28,3.28-3.53,5.09-2.96,6.69c0.74,2.06,4.21,3.05,13.47,5.7
			l1.64,0.47l-11.79-13.39L166.27,306.78z M283.82,275.21c2.43,0,4.41,0.04,6.22,0.13c0.45,0.02,0.88,0.03,1.31,0.03
			c7.41,0,11.91-3.38,14.16-10.64c3.38-10.93,6.93-22.01,10.36-32.72c3.68-11.48,7.48-23.34,11.08-35.05
			c0.68-2.21,0.5-4.66,0.32-7.02c-0.08-1.06-0.16-2.16-0.16-3.21v-0.29l-2.99-1.68l-0.27,0.23c-1.18,1.02-2.54,1.99-3.85,2.94
			c-2.9,2.09-5.89,4.24-7.44,7.12c-10.43,19.44-20.32,38.75-30.8,59.2c-3.44,6.71-6.91,13.48-10.43,20.32l-0.38,0.73h0.82
			c2.51,0,4.78-0.02,6.89-0.05C280.49,275.23,282.19,275.21,283.82,275.21z"/>
		<path d="M125.15,107.16c0.11,0.44,0.23,0.88,0.35,1.32c0.43,1.56,0.85,3.04,0.65,4.36c-0.2,1.31-0.96,2.61-1.77,3.98
			c-0.45,0.77-0.92,1.56-1.3,2.39c-1.55,3.37-1.78,5.82-0.72,7.71c1.11,1.97,3.51,3.1,7.55,3.56c26.68,3.02,50.53,5.96,72.9,8.99
			c3.7,0.5,7.46,0.87,11.1,1.24c10.32,1.02,20.99,2.08,31.21,6.17c8.07,3.23,17.08,4.53,25.79,5.79c4.11,0.59,8.37,1.21,12.45,2.02
			c3.13,0.62,6.18,1.41,9.7,2.33c1.34,0.35,2.74,0.71,4.22,1.09c-0.34,0.74-0.64,1.49-0.94,2.23c-0.77,1.9-1.49,3.7-2.5,4.12
			c-6.15,2.58-7.66,7.43-9.11,12.12c-0.3,0.97-0.61,1.98-0.96,2.95c-4.03,11.19-8.21,22.55-12.26,33.53
			c-4.5,12.22-9.15,24.85-13.62,37.32c-2.95,8.24-5.28,16.9-7.24,24.38c-0.39,1.48,0.12,3.02,0.61,4.52
			c0.21,0.63,0.4,1.22,0.53,1.79l0.23,1.05l1.03-0.3c0.58-0.17,1.27-0.29,1.99-0.42c1.78-0.31,3.61-0.63,4.45-1.87l0.55-0.81
			c3.01-4.47,6.13-9.09,7.57-14.16c1.64-5.79,2.83-11.77,3.97-17.56c0.88-4.44,1.79-9.04,2.9-13.5c0.82-3.28,2.65-4.88,5.6-4.88
			c1.6,0,3.54,0.47,5.75,1.38l0.98,0.41l0.34-1.01l27.97-81.75l0.28-0.04l5.54-0.71c0.01,0.02,0.03,0.04,0.03,0.06
			c-0.51,12.85,4.8,17.75,20.25,18.72c3.41,0.21,6.82,1.08,10.44,2c1.26,0.32,2.55,0.65,3.88,0.96c-0.99,1.29-1.92,2.44-2.77,3.49
			c-2.15,2.65-3.85,4.73-4.86,7.17c-9.18,22.17-18.74,45.83-30.09,74.44c-2.58,6.51-4.58,12.86-5.94,18.88
			c-0.33,1.46,0.36,2.93,1.03,4.35c0.51,1.09,1.04,2.21,0.95,3.07c-0.3,2.89-1.16,5.78-2.06,8.84c-0.29,0.98-0.59,1.99-0.87,3.02
			c-5.38-2.5-11.04-3.72-17.27-3.72c-5.51,0-10.82,0.92-15.95,1.81c-1.76,0.31-3.58,0.62-5.35,0.89c-0.89,0.13-1.76,0.28-2.62,0.42
			c-2.41,0.4-4.68,0.78-6.68,0.78c-3.15,0-6.34-0.76-8.28-6.31l-0.33-0.96l-0.95,0.35c-1.58,0.58-3.14,1.16-4.69,1.74
			c-8.6,3.23-16.72,6.29-25.39,6.29c-4.21,0-8.26-0.71-12.35-2.18c-1.6-0.57-3.39-0.85-5.47-0.85c-3.35,0-6.99,0.74-10.51,1.45
			c-2.34,0.47-4.76,0.96-7.02,1.21c-0.92,0.1-1.74,0.47-2.53,0.83c-0.29,0.13-0.58,0.26-0.87,0.38c-0.88,0.35-2.03,0.68-3.14,1.01
			c-3.2,0.94-5.73,1.68-5.95,3.36c-0.21,1.65-1.08,10.03,2.58,13.13c4.54,3.86,11.61,8.8,19.45,10.45
			c19.82,4.16,40.13,7.71,59.76,11.14c6.23,1.09,12.46,2.18,18.68,3.29c1.48,0.26,2.98,0.29,4.89,0.32c1.03,0.02,2.21,0.04,3.58,0.1
			l2.21,0.1c2.12,1.16,5.5,1.79,7.79,1.79c1.69,0,2.89-0.31,3.55-0.93l0.22-0.21c2.36-2.2,5.59-5.21,5.33-8.92
			c-0.14-1.9-1.2-3.74-3.18-5.48l8.16-2.07l0.35-0.09l0.57-0.14l0.15-0.57c0.25-0.95,0.44-1.92,0.62-2.87
			c0.38-1.98,0.73-3.86,1.65-5.37c12.63-20.92,20.76-43.9,28.62-66.12c2.28-6.43,4.63-13.09,7.06-19.58
			c1.6-4.29,3.42-8.6,5.18-12.76c1.81-4.27,3.68-8.69,5.32-13.12c0.97-2.61,1.61-5.35,2.24-8c0.53-2.25,1.08-4.57,1.82-6.77
			c0.35-1.03,1.29-1.99,2.29-3.01c0.5-0.51,1.03-1.05,1.5-1.62l0.69-0.83l-0.88-0.63L363.5,178l-1.67-1.19l4.83-5.26l0.39-0.42
			c2.92-0.29,5.81-0.62,8.61-0.94c6.55-0.75,12.73-1.46,19-1.6c2.45-0.05,5.02-0.08,7.63-0.08c9.71,0,19.32,0.35,30.76,0.87
			c1.33,0.06,2.74,0.98,4.22,1.96c0.5,0.33,1.01,0.66,1.53,0.97l-0.14,0.48l-23.75-1.85l-12.28-0.96l-0.89-0.07l-0.17,0.88
			l-0.17,0.89l-0.13,0.68l-0.17,0.9l0.88,0.25l2.23,0.63l-1.25,0.25l-2.21,0.45l-2.46,0.5l2.13,1.33c0.29,0.18,0.55,0.37,0.79,0.55
			c0.54,0.4,1.04,0.78,1.71,0.83c4.02,0.31,8.11,0.55,12.06,0.79c7.81,0.47,15.88,0.96,23.74,1.93c20.84,2.56,42.97,5.59,71.75,9.82
			c8.36,1.23,16.83,2.65,25.03,4.03c14.64,2.46,29.79,5,44.81,6.53c3.51,0.36,7.28,0.53,11.52,0.53c3.62,0,7.3-0.13,10.93-0.29l0,0
			l-0.14,1.46l-0.14,1.46l-0.09,0.97l0.97,0.12c2.81,0.34,5.67,0.72,8.43,1.08c6.3,0.83,12.82,1.69,19.27,2.15l0.92,0.06
			c3.54,0.25,6.09,0.43,6.57,1.16c0.36,0.56-0.03,2.05-0.81,4.29l0,0l-0.6-3.06l-0.15-0.77l-0.78-0.04l-31.46-1.52l-0.92-0.04
			l-0.12,0.91l-0.13,0.99l-0.1,0.76l0.71,0.3l9.25,3.87l-0.06,0.2c-0.6-0.13-1.21-0.26-1.81-0.38c-1.94-0.41-3.94-0.83-5.9-1.27
			c-3.46-0.78-6.97-1.65-10.36-2.5c-7.47-1.86-15.19-3.79-22.94-4.83c-11.65-1.56-23.56-2.58-35.08-3.56
			c-5.82-0.5-11.85-1.01-17.76-1.58c-10.61-1.04-21.4-2.14-31.83-3.2c-22.4-2.29-45.56-4.65-68.39-6.52
			c-4.03-0.33-8.35-0.48-13.58-0.48c-3.71,0-7.49,0.08-11.14,0.15c-3.65,0.08-7.42,0.15-11.11,0.15c-1.91,0-3.66-0.02-5.34-0.06
			c-0.2,0-0.39-0.01-0.58-0.01c-5.72,0-8.96,2.2-11.19,7.61c-4.07,9.87-8.54,19.8-12.86,29.39c-1.12,2.49-2.24,4.98-3.36,7.47
			c-1.06,2.37-2.23,4.77-3.36,7.08c-2.33,4.76-4.73,9.68-6.38,14.78c-1.25,3.86-1.58,9.83,0.65,13.83c1.84,3.3,2.32,6.59,1.28,8.81
			c-0.75,1.6-2.26,2.63-4.47,3.05c-10.04,1.9-10.07,8.6-9.22,13.48c1.89,10.85-1.37,20.59-10.26,30.64
			c-2.38,2.69-4.42,5.59-6.58,8.66c-0.99,1.41-2.01,2.86-3.08,4.32l-0.91,1.23l1.49,0.34c1.56,0.36,3.03,0.69,4.44,1
			c2.79,0.63,5.43,1.22,8,1.83c7.32,1.75,14.77,3.51,21.98,5.21c19.64,4.64,39.94,9.43,59.79,14.58c5.52,1.43,10.76,3.91,16.31,6.52
			c2.22,1.05,4.51,2.13,6.88,3.17c-4.96,6.74-10.52,31.8-9.99,35.3c0.43,2.81,0.12,6.16-0.94,10.26c-0.88,3.4-2.11,6.71-3.31,9.92
			c-0.51,1.36-0.98,2.64-1.43,3.92l-0.47,1.35l1.43-0.02c1.71-0.02,3.42-0.03,5.13-0.03c36.7,0,73.01,4.83,108.12,9.51
			c21.94,2.92,44.61,5.94,67.04,7.72l-0.23,2.93l-0.09,1.19l-0.08,1.08h1.08h18.77c-2.64,0.13-5.41,0.27-8.15,0.39
			c-4.95,0.22-9.9,0.43-14.85,0.65c-10.76,0.46-21.89,0.94-32.83,1.52c-2.83,0.15-5.64,0.64-8.89,1.2c-1.52,0.26-3.09,0.53-4.83,0.8
			c-2.82-2.78-9.4-5.13-14.55-5.13c-1.99,0-3.62,0.35-4.83,1.04c-6.35,3.61-11.36,6.66-15.79,9.61
			c-20.68,13.78-42.69,28.46-64.38,43.26c-2.91,1.98-5.52,2.94-8.01,2.94c-1.79,0-3.45-0.5-5.1-1.53c-3.31-2.07-6.47-4.52-9.52-6.89
			c-2.53-1.97-5.15-4-7.87-5.83c-1.87-1.26-5.39-3.36-8-3.36c-0.52,0-0.99,0.08-1.4,0.24c-0.86,0.33-1.73,0.66-2.6,0.98
			c-7.52,2.84-15.29,5.77-21.08,10.78c-4.77,4.13-6.74,11.75-8.21,18.57c-0.46,2.14,1.9,4.3,4.18,6.4c0.46,0.42,0.91,0.83,1.29,1.21
			c-10.51,9.96-15.22,21.3-18.43,31.13c-0.48,1.46,0.22,3.57,1.16,4.75c1.18,1.48,1.66,2.67,1.44,3.55
			c-0.33,1.34-2.37,2.33-4.61,3.3c-1.4,0.61-2.69,1.42-3.93,2.2c-0.54,0.34-1.08,0.68-1.62,1l-0.97,0.57l0.68,0.9
			c2.36,3.11,4.68,6.19,6.98,9.23c6.7,8.87,13.03,17.25,19.62,25.62c1.64,2.08,4.4,3.92,7.37,4.91c2.38,0.79,4.78,1.19,7.14,1.19
			c5.55,0,11.09-2.15,17.45-6.78c1.02-0.74,2.03-1.49,3.04-2.25c4.04-3.02,8.23-6.15,12.78-8.15c19.87-8.72,35.35-15.04,50.2-20.48
			c19.76-7.24,39.9-14.46,59.38-21.44c29.55-10.59,60.11-21.54,89.97-32.79c10.24-3.86,20-9.31,29.44-14.58
			c1.94-1.09,3.92-2.19,5.91-3.28l-4.88,4.27l-5.06,4.43l-0.8,0.7l0.74,0.76l2.69,2.76l0.67,0.69l0.71-0.65l7.17-6.5l7.17-6.5
			l0.78-0.71l-0.75-0.74l-1.99-1.98c0.3-0.15,0.59-0.31,0.89-0.46l0.89-0.46l-0.47-0.89l-2.31-4.37l-3.94-7.46l6.5,7.01l3.52,3.79
			l0.45,0.48l0.62-0.22l1.72-0.61l1.72-0.61l0.81-0.29l-0.16-0.84c-0.21-1.07-0.32-2.25-0.43-3.4c-0.26-2.72-0.53-5.53-2.07-7.62
			c-2.49-3.37-5.54-6.4-8.49-9.33c-1.94-1.93-3.95-3.93-5.77-5.99c-1.86-2.11-3.45-4.53-4.99-6.88c-0.52-0.79-1.06-1.61-1.6-2.41
			l0.27-0.18l12.5,13.1l0.61,0.64l0.71-0.53l2.49-1.85l0.78-0.58l-0.55-0.8l-21.31-30.71l-27.67-39.87l-0.72-1.03l-0.85,0.93
			c-11.48,12.67-11.72,17.75-1.31,28.59c2.33,2.43,4.3,5.15,5.73,7.14c0.36,0.5,0.69,0.95,0.98,1.34l-3.84,11.96
			c-1.3,0.06-2.67,0.13-4.1,0.21l-0.52-1.17l-3.66-8.27l-3.88-8.77l-0.75-1.71l-1,1.57l-3.27,5.12l-2.17,3.4
			c-0.1-0.73-0.2-1.43-0.3-2.09c-0.25-1.69-0.6-4.01-0.28-4.41c5.64-4.1,5.15-9.04,4.68-13.82c-0.23-2.3-0.47-4.67-0.05-7.03
			l0.34-1.94l-1.77,0.87c-1.19,0.58-2.26,1.14-3.21,1.64c-2.01,1.05-3.6,1.88-5.28,2.46c-1.12,0.39-2.41,0.45-3.78,0.52
			c-0.28,0.01-0.57,0.03-0.86,0.05c-0.02-0.29-0.05-0.57-0.07-0.85c-0.12-1.35-0.22-2.62,0.09-3.72c0.67-2.3,1.75-4.17,2.97-5.12
			c6.42-5.03,5.35-10.85,3.43-17.38c-3.99-13.56-7.81-27.42-11.51-40.81c-0.82-2.95-1.63-5.9-2.45-8.85
			c2.21,3.6,4.44,7.31,5.97,11.16c4.81,12.1,8.9,24.57,12.68,36.3c1.18,3.67,3.04,7.42,7.79,7.42c1.32,0,2.82-0.28,4.58-0.86
			c2.31-0.76,4.53-1.14,6.59-1.14c6.4,0,11.79,3.72,16.01,11.04c6.23,10.83,12.67,21.79,18.89,32.38
			c6.92,11.79,14.08,23.97,20.98,36.03c3.84,6.71,7.24,13.52,10.53,20.1c1.32,2.65,2.58,5.16,3.82,7.58
			c-0.86,1.19-1.68,2.25-2.48,3.27c-1.84,2.37-3.43,4.41-4.37,6.73c-1.03,2.51-1.22,5.22-1.36,7.21c-0.03,0.37-0.05,0.7-0.08,1
			c-1.7,0.65-3.29,1.22-4.83,1.77c-3.45,1.23-6.43,2.29-9.22,3.78c-8.38,4.47-16.69,9.15-25.49,14.1c-3.05,1.72-6.17,3.47-9.39,5.27
			l0.66-5.81l0.37-3.22l0.18-1.57l-1.49,0.51l-2.36,0.8l-100.14,33.99l-0.93,0.32l0.3,0.94l0.71,2.19l0.29,0.9l0.91-0.24l34.62-9.01
			c-7.05,2.17-14.32,4.4-21.46,6.67c-9.06,2.88-18.45,5.28-27.53,7.6c-16.62,4.25-33.8,8.64-49.76,16.15
			c-13.24,6.24-27.08,11.87-40.46,17.31c-6.44,2.62-13.1,5.33-19.61,8.07c-4.93,2.08-9.76,3.13-14.34,3.13
			c-8.75,0-17.09-3.88-24.78-11.52c-3.67-3.65-7.35-7.42-10.91-11.06c-5.38-5.51-10.94-11.21-16.62-16.64
			c-2.07-1.98-5.49-2.67-8.5-3.27l-0.48-0.1c-4.4-0.89-8.9-1.69-13.24-2.46c-4.96-0.88-10.09-1.79-15.09-2.84
			c-7.36-1.55-14.85-3.11-22.09-4.61c-22.86-4.75-46.51-9.66-69.57-15.16c-13.38-3.19-26.86-6.98-39.89-10.65
			c-11.96-3.36-24.33-6.84-36.61-9.85c-22.29-5.47-45.15-10.26-67.25-14.89c-3.93-0.82-7.87-1.65-11.8-2.48
			c-0.22-0.05-0.46-0.07-0.69-0.07c-1.3,0-2.67,0.7-4.41,1.58c-0.78,0.4-1.65,0.84-2.61,1.27c-0.38-1.19-0.8-2.43-1.25-3.72
			c-1.3-3.81-2.77-8.14-3.61-12.47c-2.1-10.92-3.94-22.09-5.72-32.89c-0.73-4.43-1.46-8.85-2.21-13.27l-0.16-0.93l-0.94,0.11
			l-2.63,0.3l-0.94,0.11l0.05,0.94l0.71,12.62c-0.84-10.55-1.82-21.33-3.74-31.82c-2.08-11.37-5.37-22.7-8.55-33.66
			c-1.68-5.8-3.42-11.79-4.95-17.71c-0.95-3.67-1.07-6.62-0.34-8.78c5.09-15.18,1.95-23.12-12.49-30.95c1.3-1.66,2.59-3.3,3.88-4.94
			c3.8-4.83,7.73-9.82,11.47-14.79c1.69-2.25,3.26-4.92,4.66-7.93c5.9-12.72,11.78-25.71,17.47-38.26
			c19.98-44.12,40.63-89.73,66.08-132.3c8.48-14.18,12.36-17.34,25.97-21.13l6-1.67l-6.22-0.29l-14.99-0.7
			c-2.48-8.03,1.52-15.04,5.76-22.44c0.46-0.81,0.92-1.61,1.38-2.42l0.84-0.08L125.15,107.16 M35.79,331.57l-2.89-4.23l-0.93-1.36
			l-0.78,1.46c-8.13,15.23-7.86,19.49,1.71,26.78l0.27,0.2h0.34c1.58,0,2.98-0.05,4.22-0.1c0.99-0.04,1.92-0.07,2.77-0.07
			c1.32,0,2.3,0.09,3.19,0.28c2.71,0.59,5.38,2.09,7.4,3.33c4.42,2.72,9.31,4.04,14.94,4.04c2.73,0,5.46-0.3,8.14-0.74l-0.63,0.35
			l-2.29,1.26l2.54,0.59c5.55,1.28,11.11,2.63,16.49,3.93c13.89,3.37,27.02,6.56,40.6,8.81c3.79,0.63,7.35,1.79,10.8,2.92
			c2.75,0.9,5.59,1.83,8.49,2.46c14.55,3.17,29.55,5.46,44.06,7.67c3.09,0.47,6.19,0.94,9.28,1.42c7.19,1.12,14.52,2.12,21.61,3.1
			c7.54,1.04,15.34,2.11,22.99,3.32c7.35,1.16,14.79,2.6,21.98,4c2.88,0.56,5.85,1.14,8.79,1.69l-0.02,0.07l-0.03,0.14
			c-1.54-0.3-3.09-0.62-4.59-0.94c-4.17-0.86-8.47-1.75-12.77-2.34c-4.37-0.6-8.84-0.93-13.17-1.24c-1.88-0.14-3.83-0.28-5.74-0.44
			l-0.91-0.08l-0.16,0.9l-0.22,1.27l-0.22,1.27l-0.16,0.92l0.91,0.22c2.73,0.67,5.5,1.33,8.19,1.96c6.08,1.43,12.36,2.92,18.44,4.66
			c5.55,1.59,9.76,2.3,13.65,2.3c5.48,0,10.28-1.48,14.66-4.52c0.01,0,0.01,0,0.02,0l-0.77,4.01l-0.41,2.14l1.89-1.09l5.26-3.02
			l3.03-1.74c0.19,3.75-2.2,4.29-5.39,5.02c-2.27,0.51-4.61,1.05-6.09,2.91l-0.5,0.63l0.52,0.62l5.04,6.09
			c-2.82,2.2-5.6,4.48-8.29,6.69c-6.58,5.4-13.39,10.99-20.74,15.33c-1.57,0.93-3.17,1.91-4.72,2.86
			c-8.66,5.32-17.61,10.82-28.35,10.82c-2.47,0-4.99-0.29-7.51-0.88l1.78-3.65l0.68-1.41l0.46-0.94l-0.97-0.41
			c-3.24-1.39-6.43-2.77-9.57-4.13c-8.5-3.69-16.54-7.17-24.79-10.41c-1.58-0.62-3.31-0.7-4.64-0.7c-0.71,0-1.43,0.03-2.13,0.05
			c-0.68,0.02-1.38,0.05-2.06,0.05c-0.28,0-0.57,0-0.85-0.02c-4.46-0.87-8.65-2.9-13.09-5.06c-0.88-0.43-1.76-0.86-2.65-1.28
			c-15.35-7.27-31.43-13.68-46.97-19.88c-26.59-10.6-54.08-21.55-78.7-37.15c-3.43-2.17-7.62-3.2-11.67-4.2
			c-1.83-0.45-3.72-0.92-5.48-1.48l-0.67-0.21l-0.43,0.56l-2.31,3.01l-0.48,0.63l0.51,0.61l17.52,21.24l8.5,10.3l-21.83-24.07
			l-0.56-0.62l-0.71,0.44l-0.35,0.21l-0.9,0.56l-0.58,0.36l0.12,0.67l4.37,24.09l4.37,24.09l0.16,0.9l0.91-0.08l1.19-0.1l1.19-0.1
			l0.91-0.08v-0.92v-16.6l0.31-0.02l0.44-0.03c0.09,0.47,0.18,0.93,0.27,1.4c0.32,1.64,0.63,3.19,0.74,4.76
			c0.55,8.2,1.07,16.54,1.58,24.61c0.72,11.48,1.46,23.35,2.29,35.02c0.81,11.42,2.36,20.26,7.27,26.28
			c4.66,5.71,12.27,8.78,22.25,11.47l-3.13,3.87l0.19-0.3l0.55-0.89l-0.91-0.51l-14.52-8.13l-1.61-0.9l0.12,1.84
			c0.55,8.24,3.57,11.92,9.79,11.92c1.45,0,2.94-0.19,4.34-0.39l0.46-0.07l0.12-0.19l0.71,0.41c10.97,6.33,22.93,8.79,34.5,11.18
			c5.68,1.17,11.56,2.38,17.22,4.04l1.28,0.33v-0.11c1.11,0.35,2.35,0.55,3.6,0.57l0.08,0c0.45,0,0.91-0.06,1.38-0.19
			c0.27,0.06,0.56,0.11,0.88,0.14c1.71,0.55,3.63,0.97,6.19,1.36c0.25,0.04,0.5,0.06,0.78,0.08c1.24,0.28,2.5,0.48,3.73,0.68
			c1.23,0.19,2.5,0.39,3.72,0.68c1.31,0.3,2.6,0.62,3.88,0.93c3.64,0.89,7.4,1.81,11.28,2.34l0.32,0.04l0.82,0.11
			c0.74,0.75,1.69,1.26,2.83,1.52c2.38,0.55,4.78,0.78,7.11,1.01c1.72,0.17,3.49,0.34,5.21,0.64c0.54,0.09,1.08,0.2,1.62,0.3
			c1.36,0.26,2.77,0.52,4.21,0.66c0.19,0.02,0.43,0.03,0.71,0.03c0.28,0,0.58-0.01,0.94-0.02l15.27,3.17l30.64,6.36
			c0.08,0.04,0.16,0.08,0.25,0.12c2.17,0.87,4.67,0.95,6.85,0.95l0.37,0c0.96,0.28,1.71,0.49,2.49,0.58
			c4.45,0.54,8.98,0.99,13.37,1.42c9.42,0.93,19.16,1.89,28.5,3.82c10.76,2.23,21.2,5.32,32.26,8.6c4.81,1.43,9.78,2.9,14.82,4.31
			l1.64,0.46l-0.4-1.66c-0.53-2.2-0.49-3.7,0.11-4.47c0.68-0.86,2.25-0.93,3.94-0.93l0.39,0l0.4,0c1.49,0,2.92-0.05,4.05-0.63
			l0.38-0.2l0.12-0.42c8.23-28.48,20.09-56.12,31.56-82.86c13.72-31.99,27.91-65.07,35.9-99.67l0.08,0.02l0.38,0.08l-1.1,15.23
			l-0.28,3.87l2.12-3.25c4.99-7.67,6.54-14.7,4.47-20.33c-1.98-5.38-7.01-9.31-14.96-11.68c-23.87-7.13-48.75-12.47-70.19-16.91
			c-6.69-1.39-13.72-1.52-20.53-1.66c-2.54-0.05-5.15-0.1-7.72-0.22l2.88-0.98l3.11-1.06l-3.17-0.85
			c-8.29-2.22-15.84-3.64-23.15-5.01c-2.88-0.54-5.6-1.05-8.37-1.61c-4.17-0.84-8.33-1.68-12.5-2.52
			c-27.68-5.57-56.3-11.34-84.31-17.59c-5.09-1.14-10.83-4.67-14.97-9.22c-0.55-0.6,0.43-3.22,1.15-5.14
			c0.74-1.97,1.5-4.01,1.67-5.83c0.18-2-0.7-3.94-1.42-5.5c-0.11-0.24-0.22-0.47-0.31-0.69c0.64-0.47,1.32-0.96,2.03-1.47
			c2.37-1.7,5.06-3.63,7.57-5.79c0.86-0.73,1.66-1.58,2.44-2.39c1.9-1.99,3.7-3.87,5.88-3.87c1.44,0,3.03,0.79,4.85,2.42
			c0.55,0.49,1.38,0.72,2.6,0.72c0.52,0,1.04-0.04,1.48-0.08c3.51-0.32,7.02-0.64,10.54-0.95c11.64-1.03,23.68-2.1,35.47-3.65
			c3.48-0.46,8.51-3.51,9.76-6.76c10.34-26.73,22.24-57.82,32.69-88.48c1.73-5.09,1.47-10.79,1.21-16.3
			c-0.12-2.47-0.24-5.03-0.17-7.47l0.02-0.58l-0.49-0.3c-0.56-0.35-1.12-0.77-1.71-1.22c-1.37-1.04-2.78-2.11-4.44-2.33
			c-12.77-1.68-26.06-3.19-40.62-4.62c-0.21-0.02-0.43-0.03-0.64-0.03c-1.46,0-2.92,0.46-4.32,0.9c-0.69,0.22-1.35,0.42-1.99,0.57
			c-0.65,0.06-1.3,0.15-1.93,0.23c-1.05,0.14-2.04,0.28-3,0.28c-0.42,0-0.8-0.03-1.17-0.08c-0.64-0.1-1.33-0.53-2.06-0.99
			c-0.93-0.59-1.9-1.19-3.03-1.28c-8.37-0.64-16.89-1.21-25.13-1.77c-13.02-0.88-26.49-1.79-39.7-2.97
			c-3.25-0.29-6.43-0.55-9.5-0.55c-7.73,0-16.39,1.43-21.97,12.07c-5.57,10.62-11.34,21.37-16.93,31.76
			c-3.03,5.65-6.07,11.29-9.09,16.94c-0.07,0.14-0.16,0.29-0.24,0.44c-0.63,1.13-1.34,2.4-0.82,3.46c2.5,5.08-0.15,8.76-2.97,12.65
			c-0.57,0.79-1.16,1.6-1.7,2.43C60.4,260.3,44.77,295.48,35.79,331.57 M270.15,275.79h1.64c2.51,0,4.74-0.02,6.89-0.05
			c1.82-0.02,3.51-0.04,5.14-0.04c2.46,0,4.37,0.04,6.2,0.13c0.46,0.02,0.9,0.03,1.34,0.03c7.66,0,12.31-3.49,14.64-10.99
			c3.38-10.93,6.93-22.01,10.37-32.73c3.67-11.47,7.47-23.34,11.08-35.05c0.71-2.3,0.52-4.8,0.34-7.21
			c-0.08-1.05-0.16-2.14-0.16-3.17v-0.59l-0.51-0.29l-0.61-0.34l-1.82-1.02l-0.61-0.34l-0.53,0.46c-1.17,1.01-2.51,1.97-3.81,2.91
			c-2.94,2.12-5.99,4.31-7.58,7.29c-10.43,19.45-20.33,38.77-30.81,59.22c-3.44,6.71-6.9,13.47-10.42,20.3L270.15,275.79
			 M179.92,320.59l-2.25-2.56l-2.96-3.37l-7.28-8.26l-0.84-0.96l-0.73,1.05c-2.37,3.42-3.68,5.3-3.02,7.14
			c0.82,2.31,4.36,3.32,13.81,6.02L179.92,320.59 M116.99,383.3l0.35-0.95l0.53-1.44l0.35,0.14c15.88,6.37,32.75,8.07,50.61,9.88
			l0.13,0.01l2.17,0.22l-1.25-1.79c-3.23-4.61-34.39-10.74-46.68-10.74c-2.04,0-3.57,0.15-4.66,0.46l0.26-0.7l0.36-0.98l-1-0.32
			l-8.55-2.73l-8.55-2.73l-0.92-0.29l-0.33,0.9l-1.11,3.05l-0.34,0.93l0.92,0.35l13.12,4.99l3.62,1.38L116.99,383.3 M104.55,394.69
			l0.4-0.88l1.1-2.43l0.2-0.45l0.42-0.93l-0.94-0.4l-4.99-2.14l-16.6-7.13l-0.9-0.39l-0.41,0.89l-1.4,3.06l-0.43,0.94l0.95,0.4
			l17.65,7.4l4.03,1.69L104.55,394.69 M172.52,416.24l0.45-0.85l1.19-2.24l0.41-0.78l0.49-0.92l-0.94-0.45l-52.72-25.41l-0.87-0.42
			l-0.45,0.85l-1.32,2.5l-0.15,0.28l-0.48,0.91l0.93,0.45l26.3,12.82l26.3,12.82L172.52,416.24 M172.26,404.49l0.44-0.46l1.55-1.63
			c0.01,0.04,0.02,0.08,0.02,0.11c0.79,3.74,1.61,7.61,4.16,9.93c13.21,11.98,30.18,20.55,53.41,27c0.36,0.1,0.74,0.21,1.12,0.32
			c2.46,0.7,5.25,1.5,7.71,1.5c1.21,0,2.22-0.19,3.1-0.57c7.27-3.17,14.22-7.33,20.1-12.03c2.28-1.82,3.25-4.29,2.66-6.77
			c-0.69-2.9-3.37-5.17-7-5.93c-14.65-3.07-28.05-5.63-40.97-7.82c-8.1-1.37-16.37-2.49-24.37-3.58c-2.98-0.4-6.04-0.82-9.08-1.24
			l18.17,1.6l19.83,1.75l0.95,0.08l0.13-0.94l0.07-0.5l0.08-0.58l0.13-0.94l-0.93-0.18l-23.25-4.49l-23.25-4.49l-0.39-0.08
			l-0.34,0.22l-1.75,1.13l-1.06,0.69l-0.04,0.03c-0.64-1.44-1.38-2.6-2.57-2.84c-7.11-1.46-14.42-2.49-21.49-3.48
			c-2.4-0.34-4.8-0.68-7.2-1.03l-0.88-0.13l-0.23,0.86l-0.38,1.42l-0.38,1.42l-0.24,0.91l0.89,0.3l6.14,2.05l24.55,8.2
			L172.26,404.49 M404.71,467.83l0.91-0.42c0.95-0.44,2.11-0.83,3.24-1.2c2.74-0.91,5.57-1.86,6.53-3.89
			c1.73-3.63,2.47-7.72,3.25-12.06c0.34-1.9,0.7-3.87,1.15-5.93l0.11-0.47l-0.31-0.38c-0.27-0.32-0.57-0.8-0.89-1.31
			c-0.96-1.51-2.16-3.39-3.97-3.89c-0.23-0.06-0.47-0.09-0.73-0.09c-2.09,0-5.36,2.09-6.36,4.06c-3.08,6.1-5.21,11.61-6.51,16.83
			c-0.45,1.81,0.74,3.75,1.9,5.62c0.48,0.78,0.94,1.53,1.27,2.23L404.71,467.83 M416.72,483.22c-0.16,0.04-0.33,0.06-0.51,0.06
			c-1.11,0-2.56-0.78-4.1-1.6c-2.08-1.12-4.44-2.39-7.05-2.39c0,0,0,0,0,0c-2.4,0-4.56,1.06-6.6,3.23
			c-1.56,1.66-3.83,2.74-6.24,3.88c-4.69,2.22-10,4.74-12.14,12.33l-0.65,2.31l2.1-1.16c2.42-1.34,4.64-2.55,6.8-3.71
			c4.5-2.44,8.39-4.54,12.18-6.88c2.39-1.48,4.59-2.23,6.53-2.23c2.97,0,5.57,1.75,7.95,5.35c0.61,0.92,1.21,1.85,1.81,2.79
			c1.92,2.99,3.91,6.08,6.24,8.87c2.42,2.9,5,4.31,7.89,4.31c2.1,0,4.31-0.74,6.75-2.27c14.72-9.22,29.82-18.42,44.42-27.31
			c7.15-4.36,14.55-8.86,21.81-13.31c1.19-0.73,2.23-1.63,3.25-2.5c0.46-0.39,0.91-0.79,1.38-1.16l0.58-0.47l-0.28-0.69l-0.95-2.35
			l-0.28-0.68l-0.73,0.06l-18.71,1.54l-17.81,1.47l-0.01-0.06l24.98-6.14l0.77-0.19l-0.01-0.8l-0.02-1.21l-0.02-1.21l-0.01-0.87
			l-0.86-0.11c-5.69-0.7-11.38-1.4-17.07-2.09c-14.65-1.78-29.8-3.62-44.66-5.64c-0.94-0.13-1.83-0.19-2.64-0.19
			c-5.09,0-8.11,2.56-8.97,7.61c-1.28,7.46-2.39,15.03-3.57,23.05C417.77,476.17,417.26,479.62,416.72,483.22 M511.99,450.92
			l0.14-0.99l0.18-1.26l0.21-1.47l0.14-1l-1.01-0.13l-14.15-1.81l-14.15-1.81l-0.98-0.13l-0.14,0.98l-0.16,1.16l-0.16,1.16
			l-0.14,0.99l0.99,0.14l3.13,0.45l25.12,3.58L511.99,450.92 M361.45,525.34l0.35-0.88l25.91-64.76l0.38-0.95l-0.96-0.36l-2.86-1.06
			l-0.9-0.33l-0.37,0.89l-18.95,45.58l-7.88,18.95l-0.41,0.99l1.01,0.34l1.26,0.43l2.52,0.86L361.45,525.34 M326.22,584.98
			c2.5,0,5.01-1.34,7.69-4.1l1.38-1.42l-1.96-0.27l-10.29-1.4l-7.74-1.05l-9.18-1.25l8.7,3.18c1.26,0.46,2.53,1.5,3.87,2.6
			C320.8,583.01,323.21,584.98,326.22,584.98 M623.12,200.64c0.55,0,1.11,0,1.66,0.01c6.32,0.07,11.96,1.29,15.88,3.43
			c2.11,1.15,3.46,3.8,4.9,6.61c0.67,1.31,1.36,2.67,2.15,3.9l0.77,1.21l0.86-1.14l1.59-2.11l1.88-2.49l0.3,0.04
			c-0.07,0.89-0.12,1.78-0.16,2.65c-0.14,2.6-0.27,5.06-0.93,7.4l-1.41,5.09c-4.06,14.61-8.26,29.72-13.07,44.36
			c-2.84,8.65-6.42,17.26-9.89,25.58c-1.25,3.01-2.55,6.12-3.79,9.2c-1.03,2.55-1.74,3.23-2.16,3.36
			c-9.17,2.77-10.62,10.15-12.02,17.3l-0.96,0l-0.21-3.44l-0.56-9.38l-0.16-2.73l0.1,0.12l0.67,0.81l0.78-0.71
			c7.74-7.05,10.49-15.65,13.05-25.35c3.06-11.58,6.79-22.78,10.74-34.64c1.35-4.05,2.74-8.22,4.1-12.41l1.26,3l1.25,2.97l0.65-3.15
			c1.84-8.94,2.78-18.13,2.93-28.93c0.03-2.23-1.87-7.04-4.15-7.34c-9.01-1.17-18.22-1.94-27.13-2.68c-0.62-0.05-1.24-0.1-1.86-0.15
			C614.48,200.82,618.84,200.64,623.12,200.64 M400.44,295.29c1.38,0.05,2.76,0.09,4.14,0.12c7.57,0.22,15.39,0.44,22.84,1.76
			c6.32,1.12,12.66,2.8,18.79,4.42c4.92,1.3,10.02,2.65,15.1,3.71c48.85,10.19,86.49,17.84,122.05,24.78
			c0.52,0.1,1.07,0.15,1.64,0.15c3.16,0,6.6-1.53,9.63-2.89l0.93-0.41c1.17-0.52,1.07-2.07,0.88-4.9c-0.07-1.09-0.15-2.3-0.16-3.57
			l4.93-6.78l3.95-5.42l2.43,2.95l-1.48,2.57l-12.95,22.53l-0.44,0.77l0.72,0.53l1.22,0.9l3.25,2.41l-0.08,0.2l-18.7-4.62
			l-1.72-0.42l0.52,1.69c0.41,1.33,0.76,2.46,1.08,3.51c-0.52-0.14-1.04-0.3-1.55-0.45c-2.1-0.62-4.27-1.26-6.4-1.26
			c-0.42,0-0.83,0.03-1.22,0.07c-4.35,0.55-8.71,1.47-12.92,2.35c-4.52,0.95-9.19,1.92-13.81,2.45c-20.69,2.34-43.09,4.56-70.46,7
			c-5.31,0.47-10.74,0.68-16,0.88c-4.85,0.19-9.86,0.38-14.78,0.78c-1.88,0.15-3.61,1.14-5.6,2.29c-0.85,0.49-1.73,1-2.71,1.49
			l-19.06-16.77c-1.33-1.93-2.74-3.97-4.2-6.09c-3.63-5.25-7.74-11.21-11.73-17.09c-3.82-5.65-4.25-11.29-1.29-16.78
			C398.01,296.79,399.66,295.29,400.44,295.29 M435.35,346.73c0.24,0,0.47-0.01,0.7-0.02c10.44-0.71,21.01-1.83,31.24-2.91
			c5.2-0.55,10.58-1.12,15.88-1.62l2.14-0.21c12.64-1.21,25.72-2.47,38.6-3.37c10.12-0.71,20.43-1.21,30.41-1.7
			c4.43-0.22,8.86-0.44,13.29-0.67l0.79-0.04l0.14-0.77l0.5-2.67l0.16-0.87l-0.85-0.26c-0.72-0.22-1.44-0.47-2.16-0.71
			c-1.57-0.53-3.19-1.07-4.85-1.44c-5.02-1.1-10.03-2.23-15.04-3.35c-13.58-3.04-27.62-6.18-41.52-8.89
			c-28.39-5.53-56.7-10.65-88.12-16.28c-1.92-0.34-3.51-0.51-4.89-0.51c-2.83,0-4.67,0.73-5.63,2.23c-1.22,1.9-0.86,4.8,1.12,9.12
			c5.33,11.63,12.26,22.42,17.69,30.52C426.71,344.95,431.76,346.73,435.35,346.73 M270.58,327.67c4.99,0.37,9.65,1.16,13.12,5.73
			c-3.95-3.76-8.67-4.78-12.9-5.68C270.73,327.71,270.66,327.69,270.58,327.67 M125.93,106.08c-0.91,0.09-1.81,0.18-2.72,0.27
			c-4.78,8.6-10.69,16.94-7.25,26.77c5.86,0.28,10.77,0.51,15.68,0.74c-14.26,3.97-18.23,7.66-26.56,21.58
			c-32.72,54.73-56.95,113.22-83.59,170.65c-1.25,2.7-2.75,5.36-4.55,7.75c-5.21,6.91-10.62,13.68-16.08,20.65
			c15.17,7.93,17.99,15.63,13.06,30.31c-0.94,2.81-0.45,6.36,0.32,9.35c4.44,17.12,10.31,33.98,13.48,51.3
			c3.17,17.29,3.74,35.02,5.45,52.56c0.48-0.03,0.96-0.06,1.44-0.09c-0.63-11.17-1.25-22.34-1.88-33.5l2.63-0.3
			c2.61,15.4,4.98,30.84,7.93,46.18c1.21,6.28,3.67,12.34,5.21,17.36c3.62-1.47,5.89-3.21,7.64-3.21c0.17,0,0.33,0.02,0.49,0.05
			c26.39,5.56,52.85,10.93,79.02,17.36c25.65,6.3,50.82,14.37,76.51,20.5c30.39,7.25,61.09,13.33,91.69,19.78
			c9.4,1.98,18.92,3.39,28.34,5.3c2.96,0.6,6.52,1.23,8.49,3.11c9.41,9,18.28,18.51,27.51,27.68c7.61,7.56,16.04,11.81,25.49,11.81
			c4.66,0,9.56-1.03,14.73-3.21c20.05-8.45,40.48-16.15,60.11-25.4c24.59-11.58,51.54-15.56,77.17-23.7
			c10.67-3.39,21.4-6.64,32.1-9.95c-0.14-0.48-0.28-0.96-0.43-1.45c-15.13,3.94-30.27,7.88-45.4,11.81
			c-0.24-0.73-0.47-1.46-0.71-2.19c33.82-11.48,67.64-22.96,102.5-34.79c-0.42,3.73-0.68,6-1.24,10.97
			c13.21-7.38,24.78-14.02,36.56-20.31c4.08-2.18,8.69-3.47,14.51-5.72c0.25-1.67,0.14-5.37,1.44-8.54
			c1.33-3.25,4.04-5.99,7.09-10.29c-4.39-8.53-9.12-18.6-14.65-28.26c-13.11-22.9-26.72-45.54-39.88-68.41
			c-4.28-7.45-9.85-11.54-16.87-11.54c-2.16,0-4.46,0.39-6.9,1.19c-1.66,0.54-3.07,0.81-4.27,0.81c-3.65,0-5.45-2.41-6.84-6.73
			c-3.94-12.21-7.97-24.42-12.71-36.37c-2.41-6.06-6.37-11.55-9.66-17.29c0.05,0.01,0.1,0.03,0.16,0.04
			c-0.48-1.57-0.97-3.15-1.61-5.21c6.99,1.73,13.26,3.28,19.53,4.83c0.23-0.57,0.47-1.15,0.7-1.72c-2.33-1.72-4.66-3.45-5.1-3.77
			c4.46-7.76,8.62-14.99,12.95-22.53c0.3,5.06,0.57,9.41,0.83,13.76c0.91,0,1.82,0,2.73-0.01c1.43-7.28,2.56-14.65,11.48-17.34
			c1.26-0.38,2.2-2.46,2.8-3.94c4.68-11.58,9.82-23.02,13.7-34.84c5.37-16.34,9.89-32.94,14.5-49.5c1-3.57,0.83-7.44,1.21-11.18
			c-0.61-0.09-1.22-0.18-1.83-0.27c-1.42,1.88-2.85,3.77-3.83,5.07c-2.46-3.83-3.96-8.97-7.41-10.85
			c-4.67-2.55-10.82-3.49-16.35-3.55c-0.56-0.01-1.12-0.01-1.67-0.01c-10.42,0-20.92,1.04-31.31,1.04c-3.82,0-7.63-0.14-11.42-0.53
			c-23.39-2.38-46.51-7.13-69.79-10.55c-23.89-3.51-47.81-6.88-71.78-9.82c-11.87-1.46-23.9-1.81-35.85-2.72
			c-0.58-0.04-1.11-0.65-2.04-1.24c2.48-0.5,4.36-0.88,7.49-1.52c-2.89-0.82-4.54-1.29-6.19-1.76c0.1-0.52,0.2-1.05,0.3-1.57
			c12.28,0.96,24.56,1.92,36.84,2.88c0.2-0.67,0.4-1.35,0.59-2.02c-2.29-1.2-4.54-3.33-6.89-3.44c-10.26-0.47-20.54-0.87-30.81-0.87
			c-2.55,0-5.1,0.02-7.65,0.08c-9.18,0.2-18.33,1.64-28.07,2.58c-1.48,1.61-3.73,4.06-6.24,6.8c1.64,1.17,3.36,2.39,4.86,3.46
			c-1.42,1.71-3.36,3.12-3.97,4.95c-1.62,4.83-2.27,9.97-4.04,14.74c-3.24,8.71-7.25,17.17-10.5,25.88
			c-10.8,28.92-19.37,58.66-35.6,85.54c-1.48,2.45-1.61,5.63-2.37,8.5c-3.15,0.8-6.33,1.61-10.49,2.66
			c8.52,5.92,2.7,11.05-0.83,14.35c-0.49,0.46-1.56,0.66-2.87,0.66c-3.19,0-7.76-1.21-8.64-2.79c-5.7-10.19-15.48-7.37-23.85-9.09
			c6.55,4.09,16,1.86,22.54,10c-3.91-0.17-6.18-0.02-8.34-0.4c-26.17-4.66-52.43-8.96-78.42-14.42
			c-6.87-1.44-13.66-5.69-19.01-10.23c-2.63-2.23-2.75-8.18-2.23-12.25c0.19-1.5,5.49-2.4,8.47-3.56c1.04-0.41,2.06-1.03,3.15-1.15
			c5.69-0.64,11.95-2.66,17.42-2.66c1.82,0,3.54,0.22,5.13,0.79c4.43,1.59,8.63,2.24,12.69,2.24c10.43,0,19.98-4.29,30.42-8.09
			c1.94,5.53,5.17,6.98,9.23,6.98c2.81,0,6.02-0.7,9.45-1.22c6.82-1.03,13.82-2.69,21.16-2.69c5.73,0,11.68,1.02,17.92,4.14
			c1.25-4.75,2.83-8.91,3.28-13.18c0.25-2.35-2.49-5.11-1.99-7.3c1.43-6.36,3.48-12.64,5.89-18.73
			c9.86-24.87,19.85-49.7,30.09-74.43c1.46-3.53,4.58-6.44,8.43-11.68c-5.76-1.24-10.82-3-15.98-3.32
			c-14.8-0.93-19.83-5.29-19.31-17.75c0.02-0.44-0.49-0.9-0.59-1.09c-2.95,0.38-5.76,0.74-7,0.9
			c-9.46,27.64-18.78,54.89-28.17,82.34c-2.39-0.99-4.43-1.46-6.14-1.46c-3.56,0-5.68,2.04-6.57,5.63
			c-2.56,10.28-3.97,20.84-6.86,31.02c-1.48,5.22-4.87,10.05-7.99,14.68c-0.87,1.3-3.87,1.3-5.89,1.89
			c-0.43-1.96-1.61-4.09-1.15-5.84c2.13-8.16,4.36-16.34,7.21-24.29c8.48-23.66,17.35-47.2,25.87-70.85
			c2.02-5.59,2.56-11.57,9.52-14.49c2.08-0.87,2.78-4.73,4.49-7.94c-5.85-1.45-10.47-2.8-15.17-3.73
			c-12.74-2.52-26.31-3.05-38.06-7.75c-13.96-5.59-28.3-5.54-42.54-7.47c-24.27-3.28-48.58-6.23-72.92-8.99
			c-7.3-0.83-8.75-3.96-6.04-9.86c1.03-2.24,2.8-4.33,3.15-6.63C127.47,110.78,126.39,108.39,125.93,106.08L125.93,106.08z
			 M35.7,333.21c0.35-0.36,0.88-0.68,0.98-1.1c9.26-37.37,25.08-72.07,46.41-104.56c3.19-4.86,8.04-9.34,4.72-16.07
			c-0.34-0.69,0.54-2.04,1.05-2.99c8.67-16.24,17.48-32.41,26.02-48.71c4.95-9.45,12.5-11.53,21.08-11.53
			c3.03,0,6.19,0.26,9.41,0.55c21.58,1.94,43.23,3.09,64.84,4.74c1.72,0.13,3.27,1.99,5.02,2.26c0.43,0.07,0.87,0.09,1.31,0.09
			c1.67,0,3.4-0.38,5.09-0.52c2.05-0.47,4.16-1.46,6.16-1.46c0.18,0,0.36,0.01,0.55,0.03c13.55,1.33,27.09,2.84,40.59,4.62
			c2.05,0.27,3.85,2.23,5.76,3.41c-0.22,7.86,1.46,16.31-0.98,23.48c-10.13,29.72-21.34,59.11-32.68,88.44
			c-1.08,2.79-5.66,5.7-8.96,6.13c-15.25,2.01-30.63,3.18-45.96,4.6c-0.42,0.04-0.91,0.08-1.39,0.08c-0.77,0-1.52-0.1-1.94-0.47
			c-2.16-1.93-3.95-2.68-5.52-2.68c-3.61,0-6.02,3.96-8.98,6.5c-3.49,2.99-7.36,5.57-10.17,7.66c0.49,1.5,2.17,4.05,1.94,6.45
			c-0.38,4.09-4.19,9.94-2.56,11.74c3.9,4.29,9.75,8.24,15.49,9.53c32.16,7.18,64.51,13.59,96.83,20.11
			c9.95,2.01,20.01,3.55,31.46,6.61c-1.75,0.6-3.51,1.2-5.26,1.8l1.05,1.05c9.92,0.57,20.11-0.05,29.71,1.94
			c23.55,4.88,47.13,10.03,70.11,16.89c16.02,4.78,19.33,16.07,9.93,30.51c0.47-6.56,0.82-11.33,1.17-16.11
			c-0.76-0.15-1.52-0.31-2.28-0.46c-14.49,63.74-49.46,120.44-67.66,183.43c-0.94,0.48-2.24,0.52-3.59,0.52c-0.26,0-0.52,0-0.79,0
			c-3.33,0-6.57,0.23-5.02,6.63c-16.39-4.59-31.56-9.71-47.15-12.93c-13.73-2.84-27.95-3.55-41.95-5.25
			c-0.72-0.09-1.44-0.29-2.46-0.59c-0.17,0-0.34,0-0.51,0c-2.19,0-4.49-0.08-6.47-0.87c-0.11-0.04-0.2-0.1-0.3-0.14
			c-15.38-3.19-30.76-6.39-46.14-9.58c-0.37,0.01-0.72,0.02-1.03,0.02c-0.23,0-0.44-0.01-0.61-0.02c-1.94-0.19-3.84-0.61-5.76-0.95
			c-4.08-0.71-8.21-0.7-12.27-1.64c-1.14-0.26-1.98-0.8-2.57-1.49c-0.5-0.07-1-0.14-1.5-0.21c-5.17-0.71-10.02-2.08-15.08-3.25
			c-2.51-0.58-5.07-0.8-7.53-1.37c-0.25-0.01-0.51-0.03-0.76-0.07c-2.17-0.33-4.2-0.72-6.14-1.36c-0.39-0.03-0.76-0.09-1.1-0.19
			c-0.44,0.14-0.9,0.23-1.37,0.23c-0.02,0-0.04,0-0.07,0c-1.16-0.02-2.36-0.2-3.47-0.58c-0.41-0.03-0.79-0.11-1.14-0.22v0.05
			c-17.18-5.02-35.29-5.77-51.5-15.12c2.21-2.73,3.69-4.56,5.14-6.36c-23.35-6.07-28.49-12.26-30.27-37.25
			c-1.41-19.87-2.54-39.75-3.87-59.62c-0.16-2.4-0.78-4.77-1.18-7.15c-0.86,0.05-1.72,0.11-2.58,0.16v17.54
			c-0.8,0.07-1.59,0.14-2.39,0.21c-2.91-16.06-5.83-32.12-8.74-48.17c0.42-0.26,0.83-0.51,1.25-0.77
			c10.42,11.5,20.85,22.99,31.27,34.49c0.36-0.26,0.73-0.52,1.09-0.78c-11.68-14.16-23.37-28.33-35.05-42.49
			c0.77-1,1.54-2.01,2.31-3.01c5.68,1.8,12.11,2.52,16.92,5.57c39.1,24.77,84.2,37.38,125.78,57.08c5.34,2.53,10.52,5.37,16.05,6.43
			c0.32,0.01,0.64,0.02,0.96,0.02c1.38,0,2.81-0.1,4.19-0.1c1.52,0,2.98,0.12,4.27,0.63c11.32,4.45,22.41,9.43,34.33,14.53
			c-1.07,2.2-2.01,4.12-3,6.16c3.13,0.84,6.11,1.2,8.95,1.2c13,0,23.24-7.72,33.58-13.81c10.72-6.32,19.94-14.99,29.96-22.72
			c-2.69-3.25-4.18-5.05-5.7-6.89c3.38-4.26,13.22-0.59,11.5-10.16c-3.01,1.73-5.82,3.35-9.6,5.51c0.43-2.24,0.69-3.6,0.95-4.95
			c-0.41-0.07-0.93-0.27-1.29-0.27c-0.12,0-0.22,0.02-0.3,0.08c-4.62,3.26-9.38,4.45-14.26,4.45c-4.37,0-8.83-0.96-13.37-2.26
			c-8.79-2.52-17.77-4.44-26.67-6.63c0.15-0.84,0.3-1.69,0.45-2.53c6.29,0.53,12.62,0.82,18.86,1.68
			c6.13,0.85,12.18,2.28,18.26,3.46c0.16-0.72,0.32-1.45,0.49-2.17c-10.6-1.98-21.16-4.21-31.81-5.89
			c-14.83-2.34-29.76-4.11-44.6-6.42c-17.81-2.77-35.71-5.25-53.28-9.08c-6.44-1.4-12.41-4.24-19.34-5.39
			c-18.96-3.14-37.57-8.24-57.02-12.73c2.23-1.23,4.21-2.32,6.18-3.42c-4.77,1.03-9.51,1.93-14.17,1.93c-4.89,0-9.71-1-14.42-3.89
			c-2.38-1.46-5-2.87-7.71-3.46c-1.07-0.23-2.17-0.3-3.4-0.3c-1.92,0-4.14,0.17-6.99,0.17c-8.95-6.82-9.43-10.52-1.43-25.52
			C33.42,329.88,34.56,331.54,35.7,333.21L35.7,333.21z M271.79,274.79c14.09-27.36,27.32-53.6,41.22-79.51
			c2.18-4.06,7.37-6.65,11.17-9.92c0.81,0.45,1.62,0.91,2.43,1.36c0,3.37,0.82,6.98-0.13,10.09c-6.97,22.64-14.44,45.14-21.45,67.77
			c-2.18,7.04-6.47,10.29-13.68,10.29c-0.42,0-0.85-0.01-1.29-0.03c-2.04-0.1-4.08-0.13-6.25-0.13
			C280.3,274.71,276.47,274.79,271.79,274.79L271.79,274.79z M383.48,192.69c7.41,0,14.85-0.31,22.25-0.31
			c4.51,0,9.01,0.11,13.49,0.48c33.45,2.73,66.8,6.45,100.2,9.72c17.6,1.72,35.29,2.79,52.8,5.14c11.21,1.51,22.15,4.83,33.21,7.32
			c2.87,0.65,5.75,1.24,8.62,1.85c0.19-0.65,0.38-1.3,0.58-1.94c-3.36-1.41-6.72-2.81-10.08-4.22c0.04-0.33,0.09-0.66,0.13-1
			c10.24,0.5,20.49,0.99,31.46,1.52c0.38,1.96,0.81,4.13,1.28,6.59c3.66-9.85,3.64-9.52-6.31-10.23
			c-9.25-0.66-18.44-2.12-27.65-3.23c0.09-0.97,0.18-1.94,0.27-2.91c11.78,1.03,23.6,1.85,35.31,3.37c1.42,0.18,3.31,4.14,3.28,6.33
			c-0.14,9.51-0.91,19.01-2.91,28.74c-0.66-1.56-1.32-3.12-2.31-5.48c-5.45,16.99-11.32,33.15-15.68,49.67
			c-2.45,9.27-5.12,17.91-12.76,24.86c-1.21-1.47-2.38-2.89-3.57-4.34c-3.88,5.32-7.67,10.53-9.84,13.51c0,3.97,0.71,7.51-0.12,7.88
			c-3.16,1.39-6.9,3.21-10.16,3.21c-0.49,0-0.98-0.04-1.44-0.13c-40.74-7.96-81.41-16.3-122.04-24.78
			c-11.38-2.38-22.48-6.12-33.91-8.14c-8.87-1.57-18.06-1.6-27.13-1.9c-0.02,0-0.03,0-0.05,0c-1.34,0-3.25,1.94-4.03,3.39
			c-3.3,6.11-2.5,12.15,1.34,17.82c5.59,8.27,11.3,16.46,16.01,23.29c7.51,6.61,14.17,12.47,19.65,17.3
			c3.67-1.77,6.03-3.78,8.55-3.98c10.24-0.83,20.56-0.75,30.79-1.66c23.52-2.09,47.03-4.35,70.49-7.01
			c8.99-1.02,17.77-3.65,26.75-4.79c0.36-0.05,0.73-0.07,1.09-0.07c2.97,0,6.12,1.37,9.19,2.06c5.25,18.83,10.34,37.71,15.85,56.47
			c1.81,6.15,2.94,11.58-3.09,16.31c-1.64,1.29-2.72,3.59-3.31,5.63c-0.53,1.84-0.05,3.94-0.01,5.93c1.98-0.21,4.09-0.07,5.91-0.7
			c2.59-0.89,4.96-2.34,8.6-4.14c-1.31,7.5,3.53,14.58-4.23,20.21c-1.3,0.94,0.15,5.33,0.47,10.27c2.73-4.28,4.15-6.5,6.99-10.94
			c2.82,6.38,4.87,11.01,7.53,17.04h-22.01c0.04-0.55,0.17-2.2,0.39-5.12c-58.48-4.55-116.1-17.31-176.23-17.31
			c-1.71,0-3.43,0.01-5.15,0.03c1.52-4.33,3.5-9.03,4.76-13.91c0.89-3.44,1.49-7.21,0.96-10.66c-0.59-3.88,6-31.69,10.67-35.51
			c-8.74-3.73-16.35-8.15-24.61-10.29c-27.13-7.05-54.5-13.27-81.78-19.8c-3.85-0.92-7.72-1.76-12.45-2.84
			c3.39-4.6,6.17-9.02,9.61-12.91c8.11-9.16,12.65-19.15,10.5-31.47c-1.08-6.17,0.34-10.79,8.42-12.32
			c6.67-1.26,7.1-7.53,3.88-13.33c-1.96-3.52-1.87-9.04-0.57-13.03c2.43-7.49,6.46-14.5,9.71-21.76
			c5.49-12.26,11.11-24.48,16.23-36.89c2.02-4.9,4.82-6.99,10.26-6.99c0.18,0,0.37,0,0.56,0.01
			C379.9,192.67,381.69,192.69,383.48,192.69L383.48,192.69z M435.35,345.73c-3.37,0-8.03-1.67-9.59-3.99
			c-6.53-9.74-12.77-19.81-17.61-30.38c-3.17-6.91-1.99-9.93,3.6-9.93c1.32,0,2.89,0.17,4.71,0.5c29.4,5.28,58.79,10.57,88.1,16.28
			c18.93,3.69,37.71,8.09,56.54,12.23c2.36,0.52,4.63,1.41,6.94,2.12c-0.17,0.89-0.33,1.78-0.5,2.67
			c-14.57,0.77-29.16,1.36-43.71,2.37c-13.61,0.95-27.19,2.27-40.77,3.57c-15.7,1.5-31.36,3.46-47.09,4.53
			C435.78,345.72,435.57,345.73,435.35,345.73L435.35,345.73z M176.92,318.69c-15.28-4.37-15.28-4.37-10.24-11.63
			C170.19,311.05,173.56,314.87,176.92,318.69L176.92,318.69z M116.41,382.01c-5.58-2.12-11.16-4.24-16.73-6.37
			c0.37-1.02,0.74-2.03,1.11-3.05c5.7,1.82,11.4,3.64,17.09,5.46C117.38,379.38,116.89,380.69,116.41,382.01L116.41,382.01z
			 M169.07,389.96c-17.94-1.81-34.69-3.49-50.48-9.82c1.03-0.33,2.62-0.49,4.61-0.49C136.22,379.65,166.36,386.08,169.07,389.96
			L169.07,389.96z M104.04,393.39c-7.23-3.03-14.45-6.06-21.68-9.09l1.4-3.06c7.2,3.09,14.39,6.18,21.59,9.27
			C104.91,391.47,104.48,392.43,104.04,393.39L104.04,393.39z M172.09,414.92c-17.53-8.55-35.06-17.1-52.59-25.65
			c0.49-0.93,0.98-1.85,1.47-2.78c17.57,8.47,35.15,16.94,52.72,25.41C173.15,412.9,172.62,413.91,172.09,414.92L172.09,414.92z
			 M171.98,403.34c-10.23-3.42-20.46-6.83-30.69-10.25c0.25-0.95,0.51-1.9,0.76-2.85c9.56,1.42,19.19,2.57,28.64,4.51
			c1.57,0.32,2.37,4.07,3.53,6.23C173.47,401.77,172.72,402.56,171.98,403.34L171.98,403.34z M240.67,440.25
			c-2.68,0-5.89-1.03-8.56-1.78c-19.59-5.43-38.08-13.25-53-26.77c-3.38-3.06-3.47-9.43-5.07-14.28c0.94-0.6,1.87-1.21,2.81-1.81
			c15.5,3,31,5.99,46.5,8.99c-0.05,0.36-0.1,0.72-0.15,1.07c-13.22-1.17-26.44-2.33-39.66-3.5c-0.09,0.63-0.18,1.26-0.27,1.89
			c11.71,1.66,23.47,3.08,35.13,5.05c13.7,2.32,27.34,4.97,40.93,7.82c6.25,1.31,8.56,7.23,3.92,10.94
			c-5.96,4.77-12.8,8.81-19.87,11.89C242.57,440.12,241.66,440.25,240.67,440.25L240.67,440.25z M541.81,463.36
			c5.81-0.87,9.95-1.84,14.14-2.07c15.88-0.85,31.78-1.45,47.67-2.17c6.3-0.28,12.59-0.62,17.62-0.87
			c1.47-4.56,2.48-7.72,4.22-13.11c-1.33-1.7-3.88-5.63-7.1-8.98c-9.89-10.3-10.01-14.71,1.33-27.23
			c16.54,23.83,32.76,47.21,48.98,70.58c-0.83,0.62-1.66,1.23-2.49,1.85c-4.36-4.57-8.72-9.14-13.08-13.7
			c-0.6,0.4-1.21,0.8-1.81,1.21c2.39,3.42,4.49,7.09,7.24,10.22c4.59,5.21,10.13,9.73,14.21,15.25c2,2.71,1.63,7.02,2.33,10.61
			c-1.15,0.41-2.29,0.82-3.44,1.23c-3.82-4.12-7.64-8.24-11.45-12.35c-0.43,0.21-0.85,0.42-1.28,0.62
			c2.21,4.18,4.42,8.37,7.34,13.91c-14.24,7.38-27.76,16.17-42.61,21.76c-49.54,18.66-99.62,36.01-149.34,54.22
			c-17,6.23-33.71,13.23-50.26,20.5c-5.8,2.55-10.85,6.76-16.01,10.51c-5.25,3.82-10.74,6.58-16.86,6.58
			c-2.19,0-4.46-0.35-6.83-1.14c-2.57-0.86-5.29-2.53-6.9-4.58c-8.88-11.27-17.44-22.77-26.59-34.83c1.78-1.04,3.51-2.3,5.44-3.14
			c4.06-1.76,7.43-3.53,3.55-8.4c-0.78-0.98-1.35-2.73-0.99-3.82c3.7-11.32,8.65-21.99,18.89-31.39c-1.67-1.98-6.39-5.22-5.91-7.44
			c1.37-6.37,3.25-14.01,7.89-18.03c6.32-5.47,15.2-8.46,23.38-11.59c0.31-0.12,0.66-0.17,1.05-0.17c2.19,0,5.35,1.78,7.44,3.19
			c5.97,4.02,11.32,8.92,17.42,12.74c1.86,1.16,3.74,1.68,5.63,1.68c2.86,0,5.74-1.19,8.57-3.12
			c21.35-14.56,42.85-28.92,64.37-43.25c5.09-3.39,10.39-6.53,15.73-9.57c1.12-0.63,2.64-0.91,4.34-0.91
			C532.73,458.16,539.45,460.64,541.81,463.36L541.81,463.36z M405.2,466.51c-1.12-2.42-3.61-5.14-3.1-7.19
			c1.42-5.72,3.75-11.31,6.43-16.62c0.82-1.61,3.76-3.51,5.46-3.51c0.17,0,0.32,0.02,0.47,0.06c2,0.56,3.27,3.53,4.36,4.87
			c-1.52,6.84-1.93,12.74-4.33,17.78C413.35,464.28,408.42,465.02,405.2,466.51L405.2,466.51z M416.21,484.28
			c0.49,0,0.97-0.11,1.41-0.36c1.89-12.56,3.36-23.29,5.19-33.97c0.8-4.7,3.47-6.77,7.99-6.77c0.78,0,1.62,0.06,2.51,0.18
			c20.55,2.8,41.16,5.19,61.74,7.73c0.01,0.81,0.02,1.61,0.04,2.42c-8.63,2.12-17.26,4.25-25.9,6.37c0.11,0.63,0.23,1.25,0.34,1.88
			c12.47-1.03,24.95-2.06,37.42-3.08c0.32,0.78,0.64,1.57,0.95,2.35c-1.5,1.21-2.89,2.59-4.52,3.59
			c-22.08,13.54-44.3,26.89-66.24,40.63c-2.29,1.44-4.35,2.12-6.22,2.12c-2.67,0-4.98-1.38-7.12-3.95c-3-3.6-5.4-7.66-7.98-11.57
			c-2.52-3.82-5.39-5.8-8.78-5.8c-2.13,0-4.47,0.78-7.05,2.38c-5.57,3.44-11.46,6.43-18.94,10.57c3.11-11.05,13.36-10.7,18.15-15.8
			c2.03-2.16,3.99-2.92,5.87-2.92C409.38,480.29,413.21,484.28,416.21,484.28L416.21,484.28z M511.14,449.79
			c-9.42-1.34-18.83-2.68-28.25-4.02c0.11-0.77,0.22-1.55,0.33-2.32c9.44,1.21,18.87,2.41,28.31,3.62
			C511.4,447.97,511.27,448.88,511.14,449.79L511.14,449.79z M360.87,524.09c-1.26-0.43-2.52-0.86-3.79-1.28
			c8.95-21.51,17.89-43.02,26.84-64.53c0.95,0.35,1.9,0.7,2.86,1.06C378.14,480.92,369.5,502.5,360.87,524.09L360.87,524.09z
			 M652.74,525.4c-0.9-0.92-1.8-1.84-2.69-2.76c4.85-4.24,9.7-8.48,14.55-12.72c0.83,0.83,1.66,1.65,2.49,2.48
			C662.3,516.73,657.52,521.06,652.74,525.4L652.74,525.4z M65.65,520.9c-4.55,0-8.18-1.95-8.79-10.98
			c6.01,3.36,10.27,5.75,14.52,8.13c-0.51,0.83-1.02,1.65-1.54,2.48C68.41,520.74,66.99,520.9,65.65,520.9L65.65,520.9z
			 M326.22,583.98c-4.43,0-7.51-4.95-11.07-6.24c5.32,0.72,10.63,1.44,18.03,2.45C330.48,582.97,328.22,583.98,326.22,583.98
			L326.22,583.98z"/>
	</g>
	<g>
		<path d="M378.35,667.82c-1.8,0-3.6-0.08-5.37-0.22c-9.7-0.82-17.6-4.18-24.17-10.29c-2.06-1.91-4.45-3.54-6.76-5.11
			c-1.81-1.23-3.68-2.5-5.37-3.9c-0.85-0.71-1.81-1.42-2.73-2.11c-3.03-2.28-6.17-4.63-6.98-7.42
			c-4.17-14.34-16.45-18.37-27.63-21.02c-30.26-7.18-61.15-13.96-91.02-20.52c-8.43-1.85-16.86-3.7-25.29-5.56
			c-2.27-0.5-4.61-0.8-6.87-1.08c-2.19-0.28-4.46-0.56-6.64-1.03c-8.17-1.77-16.46-3.64-24.48-5.44c-7.9-1.78-16.08-3.62-24.13-5.37
			c-8.32-1.8-16.79-3.58-24.99-5.31c-14.25-2.99-28.98-6.09-43.39-9.41c-6.74-1.55-13.46-3.76-19.95-5.9
			c-2.82-0.93-5.74-1.89-8.62-2.78l0.31-1.88c1.45,0.07,3.03,0.11,4.81,0.11c2.14,0,4.34-0.05,6.47-0.1c2.12-0.05,4.32-0.1,6.45-0.1
			c5.76,0,12.39,0.34,17.89,2.88c10.88,5.03,22.4,6.42,33.54,7.76c7.66,0.92,15.57,1.87,23.14,4.01
			c11.12,3.14,22.84,4.89,34.17,6.59c7.82,1.17,15.9,2.38,23.73,4.04c14.39,3.04,28.95,6.5,43.02,9.85
			c12.01,2.85,24.42,5.81,36.68,8.49c15.21,3.32,35.31,7.53,56.02,10.57c9.57,1.4,15.69,4.59,21.84,11.36
			c10.51,11.59,22.89,21.94,34.85,31.95l2.73,2.28c1.77,1.48,4.86,1.7,6.54,1.7c1.74,0,3.55-0.22,5.08-0.62
			c32.6-8.43,67.38-17.65,109.46-29.01c6.28-1.7,12.69-3.37,18.88-4.99c18.42-4.81,37.46-9.78,55.7-16
			c12.85-4.38,25.53-9.83,37.8-15.09c10.21-4.38,20.77-8.92,31.37-12.81c19.71-7.24,40.74-14.68,62.22-19.08
			c4.45-0.91,9.26-1.34,15.15-1.34c4.85,0,9.85,0.29,14.68,0.58c4.48,0.26,9.11,0.54,13.62,0.58l11.91,0.1
			c10.84,0.09,21.67,0.18,32.51,0.3c11,0.12,22,0.26,33,0.4c20.03,0.25,40.75,0.51,61.12,0.67c8.15,0.06,17.04,0.09,27.99,0.09
			c5.97,0,11.93-0.01,17.9-0.02c5.96-0.01,11.93-0.02,17.9-0.02h1.13c7.22,0,14.57,0.06,21.68,0.12c7.2,0.06,14.64,0.12,21.96,0.12
			c10.76,0,19.63-0.13,27.92-0.41c14.04-0.48,28.29-1.49,42.07-2.46c11.58-0.82,23.56-1.67,35.34-2.19
			c33.95-1.52,68.5-2.67,101.9-3.78l17.12-0.57c11.1-0.37,22.39-0.67,33.3-0.95c14.48-0.38,29.46-0.77,44.18-1.35
			c13.4-0.53,27-1.3,40.16-2.05c8.37-0.48,17.02-0.97,25.53-1.39c0.56-0.03,1.12-0.04,1.68-0.04c1.86,0,3.76,0.13,5.61,0.26
			c1,0.07,2,0.14,3,0.19l0.41,2.92l-38.8,4.73l0.03,1c1.44,0.09,3.01,0.18,4.69,0.28c7.41,0.43,16.64,0.97,25.94,1.78
			c0.28,0.14,0.78,1.61,1.14,2.68c0.25,0.72,0.52,1.52,0.84,2.33c-2.46,0.3-4.85,0.6-7.19,0.9c-5.41,0.69-10.53,1.33-15.67,1.86
			c-2.47,0.25-5.09,0.37-8.26,0.37c-2.46,0-4.98-0.07-7.41-0.14c-2.44-0.07-4.97-0.14-7.45-0.14c-6.98,0-15.2,0.51-23.23,4.33
			c-1.82,0.86-4.13,1.26-7.3,1.26c-1.57,0-3.22-0.09-4.81-0.18c-1.54-0.09-3.14-0.18-4.65-0.18c-11.3-0.03-22.79-0.14-33.9-0.25
			c-12.8-0.13-26.03-0.26-39.04-0.26c-11.34,0-21.41,0.1-30.78,0.31c-17.59,0.39-35.46,1.56-52.73,2.69
			c-11.3,0.74-22.98,1.51-34.48,2.05c-16.08,0.75-31.8,1.43-47.28,1.43c-3.4,0-6.75-0.03-9.95-0.1
			c-41.38-0.84-83.45-1.84-124.14-2.81c-46.62-1.11-94.83-2.25-142.24-3.17c-2.8-0.05-5.73-0.08-8.72-0.08
			c-14.12,0-28.47,0.61-42.36,1.19c-5.26,0.22-10.51,0.44-15.77,0.64c-5.95,0.22-10.71,2.65-15.45,7.89
			c-3.75,4.14-9.85,7.73-15.94,9.36c-11.74,3.15-23.78,6.03-35.42,8.82c-14.44,3.46-29.37,7.04-43.88,11.15
			c-35.03,9.93-70.38,20.87-104.57,31.44l-12.69,3.92c-2.37,0.73-4.51,2.17-6.59,3.57c-2.3,1.55-4.48,3.01-6.92,3.58
			c-5.99,1.39-12.24,2.26-18.27,3.11c-4.23,0.59-8.6,1.2-12.86,1.99c-3.75,0.69-7.44,1.85-11.02,2.98c-1.63,0.51-3.26,1.03-4.91,1.5
			l-0.49,0.14l0.94,3.03l16.72-4.15c-0.26,0.09-0.51,0.18-0.76,0.28C406.59,662.88,392.93,667.82,378.35,667.82z M643.35,584.96
			l1.8,0.14c1.03,0.08,2.06,0.12,3.05,0.12c10.8,0,19.34-4.81,25.39-14.3l0.97-1.52L643.35,584.96z M1028.64,562.64l0.15,3.12
			l52.13-2.18l-0.07-3.51L1028.64,562.64z M695.03,563.39l0.36,0.12c3.87,1.31,8.17,1.92,13.53,1.92c2.6,0,5.24-0.14,7.8-0.27
			c2.54-0.13,5.17-0.27,7.74-0.27c0.43,0,0.86,0,1.29,0.01l0.49,0.01l0.2-4.02l-31.18-1.65L695.03,563.39z M1294.07,559.02h58.22
			l-0.07-2.09h-58.26L1294.07,559.02z M1265.8,551.92c-5.59,0-10.2,0.88-14.49,2.79l-0.32,0.14l0.22,3.04l37.11-2.87l0-1
			c-3.01-0.21-6.1-0.59-9.08-0.97C1274.82,552.5,1270.26,551.92,1265.8,551.92z"/>
		<path d="M1356.43,544.13c1.84,0,3.73,0.13,5.56,0.26c0.85,0.06,1.72,0.12,2.6,0.17l0.28,2.01l-38.29,4.67l0.06,1.99
			c1.44,0.09,3,0.18,4.68,0.28c7.36,0.43,16.5,0.96,25.73,1.77c0.26,0.38,0.64,1.51,0.93,2.36c0.19,0.55,0.39,1.14,0.61,1.75
			c-2.22,0.27-4.39,0.55-6.51,0.82c-5.43,0.69-10.55,1.33-15.7,1.86c-2.45,0.25-5.06,0.37-8.21,0.37c-2.46,0-4.97-0.07-7.4-0.14
			c-2.45-0.07-4.98-0.14-7.47-0.14c-7.04,0-15.33,0.52-23.45,4.38c-1.75,0.83-4,1.22-7.08,1.22c-1.56,0-3.2-0.09-4.78-0.18
			c-1.55-0.09-3.15-0.18-4.67-0.18c-11.3-0.03-22.79-0.14-33.9-0.25c-12.8-0.13-26.03-0.26-39.04-0.26
			c-11.34,0-21.41,0.1-30.79,0.31c-17.6,0.39-35.47,1.56-52.75,2.69c-11.3,0.74-22.98,1.51-34.47,2.05
			c-16.08,0.75-31.79,1.43-47.27,1.43c-3.4,0-6.74-0.03-9.93-0.1c-41.34-0.84-83.36-1.84-124-2.81
			c-46.66-1.11-94.92-2.26-142.38-3.17c-2.8-0.05-5.74-0.08-8.73-0.08c-14.12,0-28.47,0.61-42.35,1.19
			c-5.18,0.22-10.53,0.44-15.79,0.64c-6.09,0.22-10.97,2.71-15.81,8.05c-3.69,4.07-9.7,7.6-15.7,9.21
			c-11.74,3.15-23.78,6.03-35.42,8.82c-14.44,3.46-29.38,7.04-43.89,11.15c-35.02,9.93-70.36,20.86-104.54,31.43l-12.73,3.94
			c-2.44,0.75-4.61,2.22-6.72,3.63c-2.26,1.52-4.4,2.96-6.76,3.51c-5.97,1.39-12.2,2.26-18.23,3.1c-4.23,0.59-8.61,1.2-12.89,1.99
			c-3.77,0.7-7.49,1.86-11.08,2.99c-1.6,0.5-3.26,1.02-4.89,1.49l-0.98,0.28l0.3,0.98l0.1,0.34l0.54,1.76l0.28,0.9l0.92-0.23
			l6.45-1.6c-10.44,3.58-21.22,6.59-32.52,6.59c-1.78,0-3.58-0.07-5.33-0.22c-9.58-0.81-17.39-4.13-23.88-10.15
			c-2.09-1.94-4.49-3.57-6.82-5.16c-1.8-1.22-3.66-2.49-5.33-3.87c-0.86-0.71-1.82-1.43-2.75-2.13c-2.97-2.23-6.04-4.53-6.8-7.16
			c-4.04-13.91-15.84-18.49-27.99-21.37c-30.28-7.18-61.19-13.97-91.08-20.53c-8.41-1.85-16.83-3.69-25.24-5.55
			c-2.29-0.51-4.64-0.8-6.92-1.09c-2.18-0.28-4.44-0.56-6.59-1.03c-8.17-1.77-16.46-3.63-24.47-5.44
			c-7.91-1.78-16.08-3.62-24.14-5.37c-8.32-1.8-16.78-3.58-24.97-5.3c-14.25-2.99-28.99-6.09-43.4-9.41
			c-6.72-1.55-13.42-3.75-19.91-5.89c-2.69-0.88-5.46-1.8-8.21-2.65l0.08-0.52l0.08-0.49c1.34,0.06,2.78,0.09,4.4,0.09
			c2.15,0,4.35-0.05,6.48-0.1c2.12-0.05,4.31-0.1,6.43-0.1c5.71,0,12.27,0.34,17.68,2.84c10.95,5.07,22.51,6.46,33.69,7.8
			c7.64,0.92,15.54,1.87,23.07,4c11.15,3.15,22.88,4.9,34.23,6.6c7.81,1.17,15.89,2.38,23.69,4.03c14.38,3.04,28.93,6.5,42.99,9.84
			c12.01,2.86,24.44,5.81,36.71,8.49c15.22,3.33,35.34,7.53,56.06,10.57c9.44,1.38,15.48,4.52,21.54,11.2
			c10.54,11.62,22.93,21.98,34.91,32l2.72,2.27c1.89,1.58,5.11,1.82,6.86,1.82c1.78,0,3.63-0.22,5.21-0.63
			c32.67-8.45,67.45-17.67,109.47-29.01c6.27-1.69,12.67-3.37,18.86-4.98c18.43-4.81,37.49-9.79,55.75-16.02
			c12.87-4.39,25.56-9.84,37.83-15.11c10.21-4.38,20.76-8.91,31.35-12.81c19.69-7.24,40.7-14.67,62.15-19.06
			c4.42-0.9,9.2-1.33,15.05-1.33c4.83,0,9.83,0.3,14.66,0.58c4.49,0.27,9.12,0.54,13.65,0.58l11.64,0.1
			c10.75,0.09,21.86,0.18,32.79,0.31c10.97,0.12,21.94,0.26,32.91,0.4c20.06,0.25,40.81,0.51,61.22,0.67
			c8.15,0.06,17.04,0.09,27.97,0.09c5.96,0,11.92-0.01,17.89-0.02c5.96-0.01,11.92-0.02,17.88-0.02h0.59l0.59,0
			c7.22,0,14.57,0.06,21.68,0.12c7.2,0.06,14.64,0.12,21.96,0.12c10.77,0,19.65-0.13,27.94-0.41c14.05-0.48,28.3-1.49,42.08-2.46
			c11.58-0.82,23.55-1.67,35.33-2.19c33.95-1.52,68.5-2.67,101.91-3.78c5.7-0.19,11.41-0.38,17.11-0.57
			c11.1-0.37,22.39-0.67,33.31-0.95c14.48-0.38,29.46-0.77,44.19-1.35c13.39-0.53,27-1.3,40.15-2.05
			c8.37-0.48,17.03-0.97,25.55-1.39C1355.29,544.14,1355.85,544.13,1356.43,544.13 M1250.74,558.43l1-0.08l18.3-1.42l18.3-1.42
			l-0.01-1.99c-3-0.2-6.08-0.59-9.05-0.97c-4.43-0.56-9-1.14-13.49-1.14c-5.67,0-10.34,0.9-14.7,2.83l-0.64,0.29l0.05,0.7l0.16,2.19
			L1250.74,558.43 M1293.59,559.52h0.95h57.23h1.04l-0.04-1.03l-0.04-1.09l-0.03-0.97h-0.97h-57.25h-1.05l0.05,1.05l0,0.05
			l0.05,1.04L1293.59,559.52 M708.92,565.94c2.61,0,5.26-0.14,7.82-0.27c2.54-0.13,5.16-0.27,7.72-0.27c0.43,0,0.86,0,1.28,0.01
			l0.97,0.02l0.05-0.97l0.07-1.52l0.07-1.52l0.05-0.99l-0.99-0.05l-30.19-1.6l-1-0.05l-0.05,1l-0.17,3.27l-0.04,0.76l0.72,0.24
			C699.16,565.32,703.51,565.94,708.92,565.94 M1028.32,566.28l0.99-0.04l25.57-1.07l25.57-1.07l0.98-0.04l-0.02-0.98l-0.02-1.25
			l-0.02-1.25l-0.02-1.03l-1.03,0.05l-25.6,1.26l-25.6,1.26l-1,0.05l0.05,1l0.05,1.04l0.05,1.09L1028.32,566.28 M648.21,585.72
			c10.98,0,19.67-4.89,25.81-14.53l1.94-3.04l-3.23,1.61l-6.99,3.48l-21,10.47l-3.23,1.61l3.6,0.28
			C646.16,585.68,647.2,585.72,648.21,585.72 M1356.43,543.13c-0.57,0-1.14,0.01-1.71,0.04c-21.9,1.09-43.78,2.58-65.69,3.44
			c-25.82,1.02-51.66,1.43-77.49,2.3c-39.68,1.33-79.36,2.58-119.02,4.35c-25.82,1.16-51.58,3.77-77.4,4.65
			c-9.29,0.32-18.6,0.41-27.9,0.41c-14.54,0-29.1-0.24-43.64-0.24c-0.39,0-0.78,0-1.18,0c-11.92,0-23.85,0.03-35.77,0.03
			c-9.32,0-18.64-0.02-27.96-0.09c-31.37-0.25-62.75-0.72-94.12-1.07c-14.81-0.17-29.62-0.28-44.43-0.41
			c-9.37-0.08-18.96-1.16-28.31-1.16c-5.18,0-10.29,0.33-15.25,1.35c-21.23,4.35-41.95,11.62-62.3,19.1
			c-23.35,8.58-45.63,19.88-69.16,27.9c-24.36,8.31-49.62,14.25-74.55,20.98c-36.44,9.84-72.91,19.56-109.46,29.01
			c-1.44,0.37-3.21,0.6-4.96,0.6c-2.46,0-4.87-0.45-6.22-1.58c-13-10.89-26.25-21.75-37.53-34.18
			c-6.42-7.08-12.82-10.16-22.14-11.52c-18.79-2.75-37.45-6.5-55.99-10.56c-26.64-5.82-53.03-12.7-79.71-18.34
			c-19.18-4.06-39.12-5.33-57.86-10.62c-18.58-5.25-38.31-3.28-56.61-11.74c-5.29-2.45-11.57-2.93-18.09-2.93
			c-4.27,0-8.64,0.21-12.91,0.21c-1.77,0-3.52-0.04-5.24-0.14c-0.15,0.92-0.3,1.84-0.45,2.76c9.66,2.98,19.18,6.55,29.02,8.82
			c22.71,5.24,45.6,9.78,68.39,14.72c16.22,3.52,32.39,7.29,48.61,10.81c4.44,0.96,9.07,1.14,13.51,2.12
			c38.8,8.57,77.66,16.91,116.31,26.08c11.79,2.8,23.3,7.05,27.26,20.68c1.12,3.85,6.25,6.79,9.87,9.78
			c3.86,3.19,8.47,5.61,12.11,8.99c6.9,6.41,15.04,9.62,24.47,10.42c1.83,0.15,3.63,0.23,5.41,0.23c18.52,0,35.13-7.78,52.25-13.52
			c-8.81,2.19-17.62,4.38-26.42,6.56c-0.22-0.7-0.43-1.39-0.65-2.09c5.29-1.52,10.49-3.47,15.88-4.46
			c10.35-1.91,20.94-2.73,31.16-5.1c4.83-1.12,8.72-5.67,13.54-7.16c39-12.05,77.96-24.22,117.25-35.36
			c26.19-7.43,52.98-12.92,79.3-19.97c5.94-1.59,12.2-5.11,16.18-9.5c4.36-4.82,8.99-7.5,15.1-7.73c19.36-0.7,38.74-1.83,58.1-1.83
			c2.91,0,5.81,0.03,8.72,0.08c88.8,1.71,177.58,4.17,266.38,5.98c3.32,0.07,6.63,0.1,9.95,0.1c15.77,0,31.56-0.69,47.31-1.43
			c29.08-1.36,58.11-4.1,87.2-4.74c10.25-0.23,20.51-0.31,30.77-0.31c24.31,0,48.63,0.45,72.94,0.51c3.04,0.01,6.34,0.37,9.46,0.37
			c2.73,0,5.33-0.28,7.51-1.31c7.54-3.58,15.26-4.28,23.02-4.28c4.95,0,9.92,0.28,14.86,0.28c2.78,0,5.56-0.09,8.32-0.37
			c7.57-0.77,15.12-1.81,23.52-2.84c-1.2-2.8-1.78-5.84-2.65-5.92c-11.45-1.01-22.94-1.6-30.65-2.06
			c10.59-1.29,24.95-3.04,39.31-4.79c-0.18-1.28-0.36-2.56-0.54-3.83C1362.45,543.47,1359.43,543.13,1356.43,543.13L1356.43,543.13z
			 M1251.67,557.36c-0.05-0.73-0.11-1.46-0.16-2.19c4.68-2.07,9.46-2.74,14.29-2.74c7.44,0,15,1.59,22.48,2.1
			C1276.07,555.47,1263.87,556.41,1251.67,557.36L1251.67,557.36z M1294.54,558.52c-0.02-0.36-0.04-0.73-0.06-1.09
			c19.08,0,38.17,0,57.25,0c0.01,0.36,0.02,0.73,0.04,1.09C1332.7,558.52,1313.62,558.52,1294.54,558.52L1294.54,558.52z
			 M708.92,564.94c-4.48,0-8.95-0.4-13.37-1.89c0.06-1.09,0.12-2.18,0.17-3.27c10.06,0.53,20.12,1.07,30.19,1.6
			c-0.05,1.01-0.1,2.03-0.15,3.04c-0.43-0.01-0.87-0.01-1.3-0.01C719.29,564.4,714.09,564.94,708.92,564.94L708.92,564.94z
			 M1029.27,565.24c-0.04-0.71-0.07-1.42-0.11-2.13c17.07-0.84,34.13-1.68,51.2-2.52c0.02,0.84,0.03,1.67,0.05,2.51
			C1063.37,563.81,1046.32,564.52,1029.27,565.24L1029.27,565.24z M673.18,570.65c-5.87,9.21-14.1,14.07-24.97,14.07
			c-0.98,0-1.99-0.04-3.01-0.12C654.52,579.95,663.85,575.3,673.18,570.65L673.18,570.65z"/>
	</g>
	<g>
		<path d="M1179.09,626.81c-7.42-2.44-7.41-7.17-7.41-12.63c0.01-4.01,0.01-8.15-3.09-11.54l-0.32-0.35l-0.37,0.29
			c-9.02,7.22-18.43,10.74-28.78,10.74c0,0,0,0,0,0c-11.6,0-24.55-4.47-40.77-14.06l-0.84-0.5l0.09,0.97
			c0.21,2.34,0.34,4.38,0.45,6.17c0.22,3.52,0.39,6.3,1.07,8.92c0.69,2.67,1.96,5.22,3.19,7.69c0.46,0.93,0.94,1.89,1.38,2.84
			l-2.32,1.22c-0.77-1.25-1.63-2.5-2.46-3.71c-2.05-2.98-4.16-6.05-5.07-9.33c-1.69-6.12-1.98-12.32-0.82-17.45
			c0.45-1.98,5.96-4.36,10-4.85c1.5-0.18,2.99-0.27,4.44-0.27c7.29,0,13.84,2.34,18.96,6.78c5.37,4.65,10.8,6.91,16.61,6.91
			c4.99,0,10.08-1.67,15.58-5.1c0.93-0.58,1.98-0.97,3.08-1.39c1.04-0.39,2.11-0.79,3.07-1.36c2.03-1.19,3.9-1.8,5.58-1.8
			c3.24,0,5.59,2.37,6.44,6.5c0.43,2.06,1.07,4.17,1.69,6.2C1180.34,613.8,1182.26,620.1,1179.09,626.81z M1114.9,595.2
			c3.57,10.82,12.83,12.07,19.49,12.07l2.16-0.02l-22.07-13.34L1114.9,595.2z"/>
		<path d="M1107.47,591.48c7.17,0,13.61,2.3,18.63,6.65c5.39,4.67,11.08,7.03,16.94,7.03c5.08,0,10.27-1.69,15.84-5.17
			c0.89-0.55,1.91-0.94,3-1.35c1.05-0.4,2.14-0.81,3.15-1.4c1.95-1.15,3.74-1.73,5.33-1.73c4.08,0,5.48,3.82,5.95,6.1
			c0.43,2.09,1.08,4.2,1.7,6.24c1.79,5.88,3.63,11.94,0.82,18.33c-6.65-2.37-6.65-6.85-6.64-12.01c0.01-3.91,0.01-8.34-3.22-11.88
			l-0.63-0.69l-0.73,0.59c-8.93,7.15-18.24,10.63-28.47,10.63c-11.51,0-24.38-4.44-40.52-13.99l-1.68-0.99l0.18,1.95
			c0.21,2.34,0.34,4.37,0.45,6.16c0.22,3.54,0.4,6.34,1.09,9.01c0.7,2.72,1.99,5.3,3.23,7.79c0.39,0.79,0.79,1.59,1.17,2.4
			l-0.74,0.39l-0.75,0.4c-0.71-1.13-1.48-2.25-2.23-3.33c-2.12-3.08-4.11-5.98-5-9.18c-1.67-6.04-1.96-12.15-0.82-17.21
			c0.36-1.58,5.46-3.96,9.57-4.46C1104.57,591.57,1106.04,591.48,1107.47,591.48 M1134.39,607.77l0.4,0l3.53-0.03l-3.02-1.83
			l-9.7-5.86l-9.7-5.86l-2.31-1.4l0.85,2.57C1118.1,606.48,1127.58,607.77,1134.39,607.77 M1107.47,590.48
			c-1.49,0-2.99,0.09-4.5,0.28c-3.81,0.46-9.88,2.81-10.43,5.23c-1.27,5.62-0.74,12.04,0.83,17.7c1.34,4.84,5.12,9.07,7.83,13.56
			c1.05-0.55,2.11-1.11,3.16-1.66c-1.63-3.62-3.76-7.11-4.74-10.88c-1-3.89-0.88-8.05-1.51-15.01c14.21,8.4,27.8,14.13,41.02,14.13
			c9.87,0,19.54-3.19,29.09-10.85c7.13,7.81-2.89,20.15,11.12,24.45c4.66-9.34-0.35-17.73-2.06-26.01c-0.88-4.25-3.33-6.9-6.93-6.9
			c-1.7,0-3.66,0.59-5.83,1.87c-1.92,1.13-4.28,1.59-6.17,2.76c-5.23,3.27-10.32,5.02-15.31,5.02c-5.53,0-10.94-2.15-16.28-6.79
			C1121.25,592.6,1114.53,590.48,1107.47,590.48L1107.47,590.48z M1134.39,606.77c-8.72,0-15.95-2.44-19.02-11.73
			c6.47,3.91,12.94,7.82,19.4,11.73C1134.65,606.77,1134.52,606.77,1134.39,606.77L1134.39,606.77z"/>
	</g>
	<g>
		<path d="M1080.87,632.3c-0.61-0.89-1.19-1.68-1.73-2.4c-1.29-1.74-2.31-3.11-2.62-4.56c-1.24-5.76-4.63-8.33-10.98-8.33l-0.4,0
			c-4.72,0.07-9.85,0.11-16.14,0.11c-3.72,0-7.48-0.01-11.29-0.02c-3.95-0.01-7.96-0.02-12.06-0.02h-0.38l-2.66,9.9
			c-2.43-4.2-1.07-8.04,0.37-12.1c0.97-2.73,1.97-5.55,1.84-8.59l-0.02-0.48h-6.65c2.22-1.08,4.46-2.24,6.64-3.38
			c6.87-3.58,13.98-7.29,21.48-8.7c1.03-0.19,2.16-0.29,3.37-0.29c6.68,0,14.85,2.99,19.01,6.96l0.26,0.25
			C1076.9,608.31,1085.96,616.97,1080.87,632.3z M1049.9,595.12c-3.4,0-6.27,2.69-8.92,5.45c-2.49,2.59-5.81,4.58-9.02,6.51
			c-1.42,0.85-2.9,1.74-4.29,2.67l-0.42,0.28l1.87,2.71h42.07l-0.04-0.53c-0.03-0.48-0.02-0.92-0.01-1.32
			c0.03-0.87,0.05-1.55-0.43-1.92c-1.43-1.12-2.83-2.27-4.24-3.43c-4.03-3.3-8.2-6.72-12.8-9.33
			C1052.41,595.48,1051.14,595.12,1049.9,595.12z"/>
		<path d="M1049.61,592.94v1c6.57,0,14.59,2.93,18.66,6.82l0.26,0.25c7.73,7.39,16.46,15.72,12.16,30.16
			c-0.4-0.57-0.79-1.09-1.15-1.58c-1.25-1.69-2.24-3.03-2.53-4.36c-1.3-6.03-4.84-8.72-11.47-8.72c-0.14,0-0.27,0-0.41,0
			c-4.71,0.07-9.84,0.11-16.13,0.11c-3.72,0-7.48-0.01-11.29-0.02c-3.95-0.01-7.96-0.02-12.07-0.02h-0.77l-0.2,0.74l-2.22,8.26
			c-1.49-3.54-0.33-6.82,0.98-10.53c0.98-2.77,2-5.64,1.87-8.78l-0.04-0.96h-0.96h-4.03c1.59-0.8,3.17-1.62,4.73-2.44
			c6.84-3.57,13.91-7.25,21.34-8.65c1-0.19,2.1-0.28,3.27-0.28L1049.61,592.94 M1028.85,613.23h0.53h41.27h1.07l-0.07-1.07
			c-0.03-0.45-0.02-0.88-0.01-1.27c0.03-0.93,0.05-1.8-0.62-2.33c-1.42-1.12-2.85-2.29-4.23-3.42c-4.05-3.32-8.24-6.75-12.87-9.38
			c-1.34-0.76-2.69-1.15-4.02-1.15c-3.6,0-6.56,2.77-9.29,5.6c-2.45,2.54-5.74,4.52-8.92,6.43c-1.43,0.86-2.91,1.74-4.31,2.68
			l-0.84,0.56l0.58,0.84l1.43,2.08L1028.85,613.23 M1049.61,592.94c-1.21,0-2.38,0.1-3.46,0.3c-10.75,2.01-20.55,8.63-30.27,13.07
			c2.17,0,5.31,0,8.41,0c0.32,7.76-6.96,14.18-1.52,21.89c1.08-4.01,2.15-8.01,2.85-10.62c8.08,0,15.79,0.05,23.36,0.05
			c5.43,0,10.79-0.02,16.15-0.11c0.13,0,0.26,0,0.4,0c5.83,0,9.24,2.11,10.49,7.93c0.51,2.36,2.67,4.4,4.97,7.97
			c5.96-16.4-3.84-25.53-12.04-33.37C1064.62,595.89,1056.34,592.94,1049.61,592.94L1049.61,592.94z M1029.38,612.23
			c-0.48-0.69-0.95-1.39-1.43-2.08c4.53-3.03,9.74-5.45,13.39-9.24c2.68-2.79,5.39-5.29,8.56-5.29c1.11,0,2.28,0.31,3.53,1.02
			c6.13,3.49,11.42,8.35,16.98,12.72c0.43,0.34,0.15,1.49,0.24,2.88C1056.75,612.23,1043.06,612.23,1029.38,612.23L1029.38,612.23z"
			/>
	</g>
	<g>
		<path d="M773.79,613.42l21.84-12.61l-0.46-2.61l-25.41-1.2l2.36,15.56l-0.31-0.16l0.46,1.17l0.1,0.66l0.13-0.08l3.03,7.63
			l-1.32,0.93c-0.43-0.36-0.91-0.7-1.38-1.03c-1.16-0.83-2.36-1.68-2.64-2.65c-1.93-6.72-3.56-12.78-4-18.92
			c-0.08-1.16,0.89-3.19,2.31-4.82c0.9-1.03,1.83-1.7,2.43-1.74c1.95-0.13,3.96-0.19,6-0.19c5.22,0,10.79,0.43,16.56,1.27
			c2.17,0.32,5.53,3.48,5.53,5.21c0,2.71-2.86,5.92-4.57,7.59c-1.19,1.17-2.93,1.87-4.78,2.61c-0.85,0.34-1.73,0.69-2.57,1.1
			l-0.63,0.31l14.61,14.63l-1.01,0.94L773.79,613.42z"/>
		<path d="M776.95,593.87c5.2,0,10.74,0.43,16.49,1.26c2.05,0.3,5.1,3.35,5.11,4.72c0,1.88-1.57,4.45-4.42,7.24
			c-1.12,1.1-2.82,1.78-4.62,2.5c-0.86,0.34-1.74,0.7-2.6,1.11l-1.27,0.61l0.99,1l6.71,6.72l7.04,7.05l-0.37,0.34l-25.17-13.03
			l12.06-6.96l8.69-5.02l0.61-0.35l-0.12-0.69l-0.33-1.87l-0.14-0.79l-0.8-0.04l-1.11-0.05l-23.29-1.1l-1.22-0.06l0.18,1.21
			l0.99,6.51l1.32,8.73l-0.99,0.59l1.29,0.67l2.42,6.1l0.53,1.33l-0.55,0.38l-0.15,0.1c-0.36-0.28-0.74-0.55-1.11-0.81
			c-1.09-0.78-2.22-1.58-2.45-2.38c-1.92-6.69-3.55-12.72-3.98-18.81c-0.07-1.01,0.89-2.97,2.19-4.45c1.04-1.2,1.8-1.55,2.09-1.57
			C772.92,593.94,774.92,593.87,776.95,593.87 M776.95,592.87c-2.02,0-4.03,0.06-6.04,0.2c-2.01,0.13-5.38,4.73-5.21,7.09
			c0.45,6.41,2.22,12.78,4.01,19.02c0.48,1.66,2.93,2.79,4.47,4.17c0.65-0.46,1.31-0.92,1.96-1.38c-1.13-2.84-2.25-5.67-3.38-8.51
			c-0.01,0-0.02-0.01-0.03-0.01c0.01,0,0.01-0.01,0.02-0.01c-0.72-4.73-1.43-9.46-2.41-15.9c8.69,0.41,16.54,0.78,24.4,1.16
			c0.11,0.62,0.22,1.25,0.33,1.87c-7.44,4.29-14.88,8.59-22.31,12.88c0,0,0,0,0,0c0,0.01,0.01,0.01,0.01,0.02
			c9.13,4.73,18.26,9.46,27.39,14.18c0.55-0.51,1.1-1.02,1.65-1.53c-4.75-4.76-9.5-9.51-14.48-14.5c2.66-1.28,5.65-2,7.48-3.8
			c2.22-2.18,4.72-5.26,4.72-7.95c0-1.99-3.59-5.36-5.96-5.71C788.11,593.35,782.51,592.87,776.95,592.87L776.95,592.87z"/>
	</g>
	<g>
		<path d="M706.02,589.79c0.62-0.37,2.12-1.12,3.57-1.12c15.05,0.12,30.87,1.41,44.82,9.89c3.41,2.07,5.48,5.63,5.53,9.53
			c0.05,3.89-1.9,7.5-5.23,9.65c-2.08,1.35-7.8,2.21-14.56,2.21c-6.4,0-12.33-0.78-16.16-2.09c2.1-0.2,4.09-0.4,6.01-0.6
			c5.57-0.57,10.39-1.07,15.27-1.11c3.8-0.03,6.69-0.98,8.37-2.75c1.15-1.22,1.68-2.78,1.59-4.63c-0.18-3.57-3.38-9.05-6.71-10.14
			c-8.13-2.64-16.42-4.5-25.19-6.47c-3.32-0.74-6.68-1.5-10.08-2.31l-0.51-0.12l-0.09,0.52c-1.84,10.16,1.54,19.01,4.81,27.56
			c1,2.62,2.04,5.33,2.89,8.02l-2.02,0.52L706.02,589.79z"/>
		<path d="M709.59,588.16l0.03,1c0.9,0.01,1.8,0.02,2.7,0.04l-0.17,0.95c-1.87,10.3,1.54,19.21,4.83,27.83
			c0.94,2.45,1.9,4.98,2.72,7.49l-1.05,0.27l-6.59-19.59l-5.43-16.14c0.69-0.36,1.85-0.86,2.96-0.86L709.59,588.16 M712.73,589.21
			c14,0.29,28.53,1.94,41.42,9.77c3.26,1.98,5.24,5.39,5.29,9.11c0.05,3.72-1.82,7.16-5,9.22c-1.98,1.28-7.72,2.14-14.29,2.14
			c-5.07,0-9.84-0.49-13.48-1.35c1.15-0.11,2.28-0.23,3.39-0.35c5.56-0.57,10.36-1.07,15.22-1.1c3.94-0.03,6.96-1.04,8.73-2.91
			c1.25-1.32,1.83-3,1.73-5c-0.19-3.72-3.55-9.45-7.06-10.59c-8.15-2.65-16.45-4.51-25.24-6.48c-3.28-0.74-6.67-1.5-10.07-2.31
			L712.73,589.21 M709.59,588.16c-2.11,0-4.22,1.43-4.17,1.43c0,0,0,0,0,0c4.43,13.16,8.5,25.26,12.57,37.36
			c0.99-0.26,1.98-0.51,2.98-0.77c-3.56-11.49-10.26-22.49-7.85-35.85c12.29,2.92,24.02,5.12,35.23,8.77
			c3.05,0.99,6.19,6.25,6.37,9.69c0.24,4.77-4,6.82-9.46,6.86c-7.16,0.05-14.32,1.1-23.36,1.89c4.05,2,11.4,2.91,18.24,2.91
			c6.5,0,12.54-0.82,14.83-2.3c7.37-4.76,7.3-15.4-0.31-20.02c-13.75-8.36-29.28-9.83-45.04-9.96
			C709.62,588.16,709.6,588.16,709.59,588.16L709.59,588.16z"/>
	</g>
	<g>
		<path d="M817.62,625.42c-0.81-2.32-1.82-5.21-3.76-7.43c-7.01-8.04-7.57-9.21-1.22-17.6c1.31-1.73,2.7-3.45,4.04-5.11
			c0.55-0.68,1.1-1.36,1.64-2.04l1.74,0.83c-0.33,0.68-0.64,1.39-0.93,2.08c-0.79,1.86-1.54,3.62-2.86,4.78
			c-3.9,3.41-5.66,6.66-5.25,9.65c0.41,2.94,2.9,5.52,7.43,7.68c5.98,2.85,11.47,4.24,16.77,4.24c5.68,0,11.14-1.67,16.21-4.98
			c3.91-2.55,5.86-5.34,5.65-8.07c-0.2-2.53-2.28-4.75-6.03-6.42c-5.11-2.28-10.65-3.44-16.52-4.66c-2.19-0.46-4.43-0.92-6.68-1.46
			c0.18-0.13,0.38-0.27,0.58-0.41c1.31-0.94,2.94-2.11,4.2-2.11c0.14,0,0.26,0.01,0.38,0.04c7.46,1.76,15.93,3.75,23.02,7.56
			c3.48,1.87,5.44,4.72,5.52,8.02c0.09,3.7-2.24,7.35-6.25,9.77c-5.7,3.45-11.55,5.12-17.89,5.12c-5.6,0-11.43-1.3-17.83-3.98
			l-0.56-0.23l-1.16,5.45C817.79,625.91,817.71,625.67,817.62,625.42z"/>
		<path d="M818.47,593.86l0.11,0.05l0.81,0.39c-0.26,0.55-0.49,1.1-0.72,1.65c-0.77,1.81-1.5,3.52-2.73,4.6
			c-4.03,3.53-5.85,6.93-5.42,10.1c0.43,3.12,3.02,5.83,7.71,8.07c6.05,2.89,11.61,4.29,16.99,4.29c5.78,0,11.33-1.7,16.48-5.06
			c4.07-2.65,6.1-5.6,5.87-8.53c-0.15-1.9-1.37-4.63-6.32-6.84c-5.15-2.3-10.73-3.46-16.62-4.69c-1.83-0.38-3.71-0.77-5.59-1.2
			c1.15-0.82,2.59-1.79,3.59-1.79c0.1,0,0.19,0.01,0.27,0.03c7.44,1.75,15.87,3.74,22.9,7.52c3.31,1.78,5.18,4.48,5.26,7.59
			c0.09,3.51-2.16,7-6.01,9.33c-5.61,3.4-11.38,5.05-17.63,5.05c-5.53,0-11.3-1.29-17.64-3.94l-1.11-0.47l-0.25,1.18l-0.67,3.12
			c-0.77-2.16-1.78-4.64-3.51-6.64c-6.88-7.89-7.34-8.85-1.19-16.97c1.31-1.73,2.69-3.45,4.04-5.11
			C817.55,595.01,818.01,594.44,818.47,593.86 M818.18,592.62c-1.98,2.49-4.02,4.94-5.94,7.47c-6.41,8.46-5.98,9.95,1.24,18.23
			c2.6,2.98,3.51,7.3,4.53,9.56c0.12-0.54,0.61-2.87,1.39-6.49c6.26,2.62,12.25,4.02,18.02,4.02c6.27,0,12.3-1.65,18.15-5.19
			c8.16-4.93,8.89-14.26,0.7-18.66c-7.02-3.77-15.23-5.74-23.14-7.61c-0.16-0.04-0.33-0.06-0.5-0.06c-2.03,0-4.64,2.5-6.04,3.23
			c8.48,2.12,16.93,3.09,24.25,6.36c7.79,3.48,7.44,8.98,0.31,13.62c-5.24,3.41-10.57,4.89-15.93,4.89c-5.5,0-11.04-1.56-16.56-4.19
			c-8.99-4.29-9.43-10.05-2.06-16.51c2.05-1.79,2.79-4.94,4.14-7.46C819.89,593.43,819.04,593.02,818.18,592.62L818.18,592.62z"/>
	</g>
	<g>
		<path d="M901.53,627.11c-4.08,0-8.72-0.57-13.79-1.69c-3.04-0.67-5.36-2.53-6.53-5.24c-1.29-2.98-1.04-6.61,0.66-9.45
			c3.88-6.51,11.59-11.26,15.84-13.52c3.42-1.81,7.71-2.35,11.85-2.87c1.73-0.22,3.52-0.44,5.23-0.75l0.89,2.26
			c-0.42,0.27-0.85,0.58-1.26,0.89c-1,0.73-2.03,1.49-2.85,1.49c-0.05,0-0.09,0-0.14-0.01c-0.96-0.11-1.92-0.16-2.84-0.16
			c-9.77,0-16.29,6.08-20.88,11.39c-2.49,2.88-3.43,5.93-2.63,8.59c0.79,2.62,3.19,4.61,6.77,5.61s7.4,1.3,11.44,1.61
			c1.9,0.15,3.86,0.3,5.89,0.53l0.67,0.08l-1.6-8.83l24.55-1.17l0.46,1.83c-0.72,0.21-1.44,0.44-2.16,0.66
			c-1.88,0.59-3.82,1.2-5.76,1.55c-3.54,0.64-6.6,2.18-9.56,3.66c-1.16,0.58-2.26,1.13-3.38,1.63
			C909.5,626.46,905.85,627.11,901.53,627.11z"/>
		<path d="M914.48,594.16l0.39,1l0.2,0.5c-0.32,0.22-0.64,0.45-0.95,0.68c-0.89,0.65-1.9,1.39-2.56,1.39c-0.03,0-0.06,0-0.08,0
			c-0.98-0.11-1.95-0.16-2.9-0.16c-9.98,0-16.6,6.18-21.26,11.56c-2.61,3.01-3.58,6.23-2.73,9.06c0.84,2.79,3.37,4.9,7.12,5.95
			c3.63,1.02,7.47,1.31,11.54,1.62c1.39,0.11,2.82,0.22,4.29,0.36c-1.82,0.33-3.83,0.5-6.01,0.5c-4.04,0-8.64-0.57-13.68-1.68
			c-2.88-0.64-5.08-2.39-6.18-4.94c-1.23-2.84-0.98-6.29,0.63-9c2.83-4.75,8.39-9.48,15.65-13.33c3.34-1.77,7.58-2.3,11.68-2.81
			C911.23,594.64,912.88,594.44,914.48,594.16 M932.42,616.38l0.24,0.97c-0.57,0.17-1.14,0.35-1.7,0.53
			c-1.87,0.58-3.8,1.19-5.71,1.54c-3.6,0.66-6.7,2.2-9.69,3.7c-1.16,0.58-2.25,1.13-3.36,1.62c-0.6,0.27-1.24,0.5-1.91,0.71
			l-0.06-0.34l-0.98-5.42l-0.4-2.19l5.77-0.27L932.42,616.38 M915.11,593.03c-5.94,1.15-12.59,1.07-17.63,3.75
			c-6.2,3.28-12.64,8-16.04,13.7c-3.24,5.43-1.47,13.74,6.19,15.43c4.35,0.96,9.23,1.7,13.9,1.7c4,0,7.85-0.55,11.07-1.97
			c4.02-1.78,8.01-4.38,12.83-5.25c2.87-0.52,5.63-1.56,8.44-2.36c-0.23-0.9-0.45-1.79-0.68-2.69c-8.31,0.4-16.62,0.79-25.53,1.21
			c0.56,3.08,0.91,5,1.58,8.73c-6.41-0.72-12.06-0.66-17.25-2.12c-7.15-2-8.75-7.79-3.9-13.39c5.39-6.23,11.62-11.21,20.51-11.21
			c0.9,0,1.83,0.05,2.79,0.16c0.06,0.01,0.13,0.01,0.19,0.01c1.47,0,3.16-1.77,4.74-2.67C915.91,595.05,915.51,594.04,915.11,593.03
			L915.11,593.03z"/>
	</g>
	<g>
		<path d="M948.67,630.73c-0.61-2.54-1.24-5.07-1.87-7.61c-1.96-7.91-4-16.09-5.46-24.22c-0.07-0.4,0.3-1.33,1.29-2.52
			c1.29-1.55,3-2.76,3.88-2.76l1.53,0c16.48,0,31.32,0.45,45.37,1.38c3.45,0.23,6.13,1.33,7.34,3.01c0.76,1.05,1,2.37,0.71,3.93
			c-0.71-0.35-1.43-0.75-2.13-1.13c-2-1.11-4.07-2.25-6.28-2.48c-13.79-1.42-26.35-2.32-38.39-2.75c0,0,0,0,0,0
			c-1.33,0-2.95,1.2-4.04,2.33c-0.58,0.59-1.91,2.12-1.87,3.4c0.15,4.87,0.8,9.78,1.43,14.54c0.35,2.64,0.71,5.37,0.98,8.05
			c0.17,1.65,0.02,3.38-0.12,5.05c-0.05,0.63-0.11,1.26-0.14,1.88L948.67,630.73z"/>
		<path d="M948.03,594.11c16.48,0,31.31,0.45,45.34,1.38c3.3,0.22,5.84,1.24,6.97,2.8c0.58,0.8,0.81,1.75,0.71,2.88
			c-0.49-0.26-0.98-0.53-1.49-0.81c-2.05-1.13-4.16-2.3-6.47-2.54c-13.8-1.42-26.37-2.32-38.43-2.76l-0.09,0
			c-1.42,0-3.17,1.28-4.33,2.48c-0.77,0.8-2.06,2.34-2.01,3.76c0.15,4.89,0.8,9.83,1.43,14.6c0.35,2.63,0.71,5.36,0.98,8.03
			c0.16,1.6,0.02,3.23-0.12,4.96c-0.04,0.46-0.08,0.93-0.11,1.4l-1.34-0.06c-0.58-2.41-1.18-4.82-1.78-7.23
			c-1.96-7.91-4-16.09-5.46-24.21c-0.03-0.2,0.26-1.05,1.3-2.25c1.3-1.5,2.77-2.44,3.38-2.44L948.03,594.11 M948.03,593.11
			c-0.51,0-1.02,0-1.52,0c-2,0-5.97,4.18-5.66,5.87c1.95,10.83,4.85,21.5,7.43,32.22c1.02,0.05,2.05,0.09,3.07,0.14
			c0.12-2.5,0.54-5.04,0.29-7.51c-0.76-7.53-2.17-15.03-2.41-22.56c-0.06-1.76,3.51-5.21,5.35-5.21c0.02,0,0.03,0,0.05,0
			c12.81,0.46,25.61,1.44,38.36,2.75c3.06,0.32,5.91,2.52,8.81,3.83c1.56-5.96-3.92-7.86-8.36-8.15
			C978.33,593.5,963.17,593.11,948.03,593.11L948.03,593.11z"/>
	</g>
	<g>
		<path d="M1003.19,630.94c-0.87-0.19-1.8-0.32-2.7-0.45c-2.12-0.3-4.32-0.61-5.54-1.72c-3.26-2.99-6.93-4.32-11.9-4.32
			c-2.31,0-4.73,0.29-6.86,0.54c-2.89,0.34-5.88,0.42-8.77,0.49c-1.02,0.03-2.04,0.05-3.06,0.09l0.18-0.31l32.28-13.33l-2.96,4.24
			l10.67,12.91L1003.19,630.94z"/>
		<path d="M995.43,613.03l-1.76,2.52l-0.44,0.62l0.48,0.59l4.79,5.8l5.39,6.52l-0.43,0.61l-0.49,0.69
			c-0.79-0.16-1.61-0.28-2.41-0.39c-2.05-0.29-4.17-0.59-5.27-1.6c-3.36-3.08-7.13-4.45-12.24-4.45c-2.34,0-4.77,0.29-6.92,0.54
			c-2.87,0.34-5.85,0.41-8.72,0.48c-0.31,0.01-0.62,0.02-0.93,0.02l17.89-7.39L995.43,613.03 M998.21,610.8
			c-11.02,4.55-22.52,9.3-34.01,14.05c-0.24,0.41-0.48,0.83-0.73,1.24c4.26-0.19,8.56-0.12,12.78-0.61c2.32-0.27,4.59-0.53,6.8-0.53
			c4.08,0,7.96,0.88,11.56,4.19c1.94,1.78,5.8,1.64,8.78,2.37c0.59-0.82,1.17-1.64,1.76-2.46c-3.52-4.26-7.04-8.51-10.67-12.91
			C995.76,614.31,997.41,611.94,998.21,610.8L998.21,610.8z"/>
	</g>
	<g>
		<path d="M55.56,162.31c0.67-2.45,1.32-4.9,1.98-7.34c1.65-6.18,3.36-12.57,5.21-18.81c1.53-5.16,3.09-9.24,4.91-12.86
			c1.17-2.31,2.56-3.59,3.91-3.59c0.95,0,1.88,0.62,2.69,1.8l-17.39,41.22L55.56,162.31z"/>
		<path d="M71.57,120.21L71.57,120.21c0.71,0,1.45,0.48,2.12,1.36l-7.47,17.71l-9.63,22.83l-0.41-0.13
			c0.62-2.29,1.23-4.58,1.85-6.87c1.65-6.18,3.36-12.57,5.21-18.81c1.52-5.13,3.07-9.19,4.88-12.78
			C69.16,121.41,70.43,120.21,71.57,120.21 M71.57,119.21c-1.48,0-3.03,1.22-4.36,3.86c-2.08,4.12-3.64,8.53-4.95,12.95
			c-2.61,8.83-4.89,17.75-7.31,26.63c0.73,0.23,1.47,0.46,2.2,0.69c5.73-13.58,11.46-27.17,17.67-41.88
			C73.88,119.99,72.75,119.21,71.57,119.21L71.57,119.21z"/>
	</g>
	<g>
		<path d="M318.24,275.41c-1.9-5.71,1.02-12.3,11.86-26.63L318.24,275.41z"/>
		<path d="M327.8,252.75l-6.2,13.92l-3.21,7.21C317.56,269.14,320.17,263.26,327.8,252.75 M332.29,245.13
			c-13.97,18-16.99,25.06-14.07,31.59C323.21,265.5,327.75,255.31,332.29,245.13L332.29,245.13z"/>
	</g>
	<g>
		<path d="M1302.75,616.49c-2.29,0-4.84-1.18-8.23-3.81c3.26-2.21,6.46-4.12,9.64-4.12c2.24,0,4.36,0.97,6.46,2.96
			C1307.69,615,1305.32,616.49,1302.75,616.49z"/>
		<path d="M1304.15,609.06L1304.15,609.06c1.98,0,3.88,0.82,5.76,2.5c-2.67,3.09-4.84,4.42-7.16,4.42c-2.05,0-4.35-1.02-7.38-3.29
			C1298.37,610.7,1301.29,609.06,1304.15,609.06 M1304.15,608.06c-3.4,0-6.79,2.06-10.48,4.59c3.62,2.89,6.48,4.34,9.08,4.34
			c2.93,0,5.54-1.84,8.53-5.5C1308.83,609.03,1306.49,608.06,1304.15,608.06L1304.15,608.06z"/>
	</g>
	<g>
		<polygon points="1241.77,620.24 1248.79,613.34 1253.39,621.29 1251.14,622.5 		"/>
		<path d="M1248.69,614.15l2.12,3.67l1.89,3.27l-1.63,0.88l-2.9-0.7l-5.41-1.31l2.26-2.22L1248.69,614.15 M1248.91,612.53
			c-2.4,2.35-4.79,4.7-8.13,7.98c4.97,1.2,7.7,1.86,10.43,2.52c0.96-0.52,1.92-1.03,2.88-1.55
			C1252.36,618.5,1250.63,615.52,1248.91,612.53L1248.91,612.53z"/>
	</g>
	<g>
		<path d="M1272.9,617.83c4.73-4.09,7.4-6.33,8.84-6.33c1.27,0,1.91,2.24,2.97,6.33H1272.9z"/>
		<path d="M1281.74,612c0.84,0,1.5,2.17,2.32,5.33h-9.82C1278.14,613.97,1280.58,612,1281.74,612 M1281.74,611
			c-1.72,0-4.54,2.44-10.18,7.33c5.32,0,9.53,0,13.8,0C1284.09,613.45,1283.47,611,1281.74,611L1281.74,611z"/>
	</g>
	<g>
		<path d="M272.3,164.12c-16.19-1.95-32.14-4.06-47.4-6.26c-0.65-0.09-1.32-0.95-1.96-1.78c-0.06-0.08-0.13-0.17-0.19-0.25
			l51.23,6.26c-0.12,0.16-0.23,0.33-0.35,0.49C273.26,163.1,272.58,164.06,272.3,164.12z"/>
		<path d="M223.89,156.47l40.41,4.94l8.78,1.07c-0.29,0.41-0.67,0.93-0.9,1.12c-16.13-1.94-32.01-4.04-47.22-6.24
			C224.67,157.32,224.28,156.93,223.89,156.47 M221.53,155.17c1.09,1.1,2.06,3,3.3,3.18c15.78,2.28,31.59,4.36,47.42,6.26
			c0.02,0,0.03,0,0.05,0c0.74,0,1.74-1.92,2.61-2.92C257.12,159.52,239.32,157.35,221.53,155.17L221.53,155.17z"/>
	</g>
	<g>
		<polygon points="70.28,423.76 71.27,423.22 96.48,465.05 95.65,465.5 		"/>
		<path d="M71.09,423.89l12.79,21.23l4.57,7.58l-17.47-28.75l0.02-0.01L71.09,423.89 M71.45,422.55c-0.62,0.34-1.25,0.69-1.87,1.03
			c8.63,14.2,17.26,28.39,25.88,42.59c0.57-0.31,1.14-0.62,1.71-0.92C88.6,451.01,80.03,436.78,71.45,422.55L71.45,422.55z"/>
	</g>
</g>
</svg>
