<?xml version="1.0" encoding="utf-8"?>
<!-- Generator: Adobe Illustrator 28.0.0, SVG Export Plug-In . SVG Version: 6.00 Build 0)  -->
<svg version="1.1" id="Layer_1" xmlns="http://www.w3.org/2000/svg" xmlns:xlink="http://www.w3.org/1999/xlink" x="0px" y="0px"
	 viewBox="0 0 32 32" style="enable-background:new 0 0 32 32;" xml:space="preserve">
<style type="text/css">
	.st0{fill:#FFFFFF;}
	.st1{fill:#FFFFFF;stroke:#FFFFFF;stroke-miterlimit:10;}
</style>
<g>
	<g>
		<path class="st0" d="M16.3,21.5L16.3,21.5L16.3,21.5L16.3,21.5z M17.7,18.6L17.7,18.6c0,0.1,0,0.1-0.1,0.1L17.7,18.6z M12.5,16.7
			c0-0.1,0-0.2,0-0.3c0.1,0,0.1,0,0.2,0c0,0,0,0,0.1,0l0,0C12.7,16.5,12.6,16.6,12.5,16.7z M3.1,14.2l0.4,0.1l0,0.1
			C3.3,14.3,3.2,14.3,3.1,14.2z M0.9,13.3L0.9,13.3L0.9,13.3L0.9,13.3z M17.1,5.7L17.1,5.7c0.1-0.1,0.2-0.1,0.3-0.1l0.1,0.1h-0.2
			L17.1,5.7z M14.7,5.4l-0.4,0.2c0,0,0,0-0.1,0l0.1-0.4c0.3,0.2,0.6,0.3,0.9,0.3c0,0.1-0.1,0.1-0.1,0.2L14.7,5.4z"/>
		<path class="st0" d="M5.8,2.4c0,0-0.1,0-0.1,0C5.4,2.8,5.2,3.1,5.3,3.6c0.3,0,0.5,0,0.7,0c-0.6,0.2-0.8,0.3-1.2,1
			c-1.4,2.4-2.5,5-3.7,7.6c-0.1,0.1-0.1,0.2-0.2,0.4c-0.2,0.3-0.5,0.6-0.7,0.9c0.7,0.4,0.8,0.7,0.6,1.4c0,0.1,0,0.3,0,0.4
			C1,16,1.3,16.7,1.4,17.5c0.1,0.8,0.2,1.6,0.2,2.3c0,0,0,0,0.1,0c0-0.5-0.1-1-0.1-1.5l0.1,0C1.9,19,2,19.7,2.1,20.4
			c0,0.3,0.2,0.5,0.2,0.8C2.5,21.1,2.6,21,2.7,21c0,0,0,0,0,0c1.2,0.2,2.4,0.5,3.5,0.8c1.1,0.3,2.3,0.6,3.4,0.9
			c1.4,0.3,2.7,0.6,4.1,0.9c0.4,0.1,0.8,0.1,1.3,0.2c0.1,0,0.3,0,0.4,0.1c0.4,0.4,0.8,0.8,1.2,1.2c0.3,0.3,0.7,0.5,1.1,0.5
			c0.2,0,0.4,0,0.7-0.1c0.9-0.4,1.8-0.7,2.7-1.1c1.1-0.5,2.3-0.7,3.4-1.1c0.5-0.1,1-0.3,1.4-0.4c0,0,0,0,0-0.1
			c-0.7,0.2-1.4,0.4-2,0.5c0,0,0-0.1,0-0.1c1.5-0.5,3-1,4.6-1.5c0,0.2,0,0.3-0.1,0.5c0.6-0.3,1.1-0.6,1.6-0.9
			c0.2-0.1,0.4-0.1,0.6-0.2c0-0.1,0-0.2,0.1-0.4c0.1-0.1,0.2-0.3,0.3-0.5c-0.2-0.4-0.4-0.8-0.6-1.3c-0.6-1-1.2-2-1.8-3.1
			c-0.2-0.3-0.4-0.5-0.8-0.5c-0.1,0-0.2,0-0.3,0.1c-0.1,0-0.1,0-0.2,0c-0.2,0-0.2-0.1-0.3-0.3c-0.2-0.5-0.4-1.1-0.6-1.6
			c-0.1-0.3-0.3-0.5-0.4-0.8c0,0,0,0,0,0c0-0.1,0-0.1-0.1-0.2c0.3,0.1,0.6,0.1,0.9,0.2c0,0,0-0.1,0-0.1c-0.1-0.1-0.2-0.1-0.2-0.2
			c0.2-0.4,0.4-0.7,0.6-1c0,0.2,0,0.4,0,0.6c0,0,0.1,0,0.1,0c0.1-0.3,0.1-0.6,0.5-0.8c0.1,0,0.1-0.1,0.1-0.2c0.2-0.5,0.4-1,0.6-1.6
			c0.2-0.7,0.4-1.5,0.6-2.2c0-0.2,0-0.3,0-0.5c0,0,0,0-0.1,0c-0.1,0.1-0.1,0.2-0.2,0.2C29,7,28.9,6.8,28.7,6.7
			c-0.2-0.1-0.5-0.2-0.7-0.2c0,0,0,0-0.1,0c-0.5,0-0.9,0.1-1.4,0.1c-0.2,0-0.3,0-0.5,0c-1-0.1-2.1-0.3-3.1-0.5
			c-1.1-0.2-2.1-0.3-3.2-0.4c-0.5-0.1-1.1-0.1-1.6-0.1c0,0,0,0-0.1-0.1c0.1,0,0.2,0,0.3-0.1c-0.1,0-0.2-0.1-0.3-0.1c0,0,0-0.1,0-0.1
			c0.5,0,1.1,0.1,1.6,0.1c0,0,0-0.1,0-0.1c-0.1-0.1-0.2-0.2-0.3-0.2c-0.5-0.1-0.9-0.1-1.4-0.1c-0.1,0-0.2,0-0.3,0
			c-0.4,0-0.8,0.1-1.2,0.1c-0.1,0.1-0.2,0.2-0.3,0.3c0.1,0.1,0.1,0.1,0.2,0.2c-0.1,0.1-0.1,0.1-0.2,0.2c-0.1,0.2-0.1,0.4-0.2,0.7
			c-0.1,0.4-0.3,0.8-0.5,1.2c-0.5,1.3-0.9,2.6-1.6,3.8c-0.1,0.1-0.1,0.2-0.1,0.4c-0.1,0-0.3,0.1-0.5,0.1c0.4,0.3,0.1,0.5,0,0.6
			c0,0-0.1,0-0.1,0c-0.1,0-0.4-0.1-0.4-0.1c-0.2-0.4-0.7-0.3-1.1-0.4c0.3,0.2,0.7,0.1,1,0.4c-0.2,0-0.3,0-0.4,0
			c-1.2-0.2-2.3-0.4-3.5-0.6c-0.3-0.1-0.6-0.2-0.8-0.5C8,11.4,8,11.1,8,10.9c0-0.1,0.2-0.1,0.4-0.2c0.1,0,0.1-0.1,0.1-0.1
			c0.2,0,0.5-0.1,0.8-0.1c0.1,0,0.2,0,0.2,0c0.2,0.1,0.4,0.1,0.6,0.1c0.5,0,0.9-0.2,1.4-0.4c0.1,0.2,0.2,0.3,0.4,0.3
			c0.1,0,0.3,0,0.4-0.1c0.3-0.1,0.6-0.1,0.9-0.1c0.3,0,0.5,0.1,0.8,0.2c0.1-0.2,0.1-0.4,0.1-0.6c0-0.1-0.1-0.2-0.1-0.3
			c0.1-0.3,0.1-0.6,0.3-0.8c0.4-1.1,0.9-2.2,1.3-3.3c0.1-0.2,0.2-0.3,0.4-0.5C15.8,5.1,15.6,5,15.4,5c-0.7,0-0.9-0.2-0.9-0.8
			c0,0,0,0,0-0.1c-0.1,0-0.3,0-0.3,0c-0.4,1.2-0.8,2.4-1.3,3.7c-0.1,0-0.2-0.1-0.3-0.1c-0.2,0-0.2,0.1-0.3,0.2
			c-0.1,0.5-0.2,0.9-0.3,1.4C12,9.6,11.8,9.8,11.7,10c0,0.1-0.2,0.1-0.3,0.1c0-0.1-0.1-0.2-0.1-0.3c0.1-0.4,0.2-0.7,0.3-1.1
			c0.4-1.1,0.8-2.1,1.1-3.2c0.1-0.2,0.1-0.5,0.4-0.7c0.1,0,0.1-0.2,0.2-0.3c-0.3-0.1-0.5-0.1-0.7-0.2c-0.6-0.1-1.2-0.1-1.7-0.3
			c-0.6-0.2-1.2-0.2-1.9-0.3C8.1,3.7,7,3.5,6,3.4C5.6,3.4,5.6,3.2,5.7,3c0.1-0.1,0.1-0.2,0.1-0.3C5.8,2.6,5.8,2.5,5.8,2.4L5.8,2.4z
			 M1.8,12.5C1.8,12.5,1.8,12.5,1.8,12.5c0.5-1.7,1.2-3.3,2.1-4.7C4,7.6,4.2,7.4,4.1,7.1c0,0,0-0.1,0.1-0.1c0.4-0.7,0.8-1.4,1.2-2.2
			c0.2-0.4,0.6-0.5,0.9-0.5c0.1,0,0.3,0,0.4,0c1,0.1,1.9,0.2,2.9,0.2c0.1,0,0.1,0.1,0.2,0.1c0,0,0,0,0.1,0c0.1,0,0.1,0,0.2,0
			c0.1,0,0.2-0.1,0.3-0.1c0,0,0,0,0,0c0.6,0.1,1.2,0.1,1.8,0.2c0.1,0,0.2,0.1,0.3,0.2c0,0.3,0.1,0.7,0,1c-0.4,1.3-0.9,2.6-1.5,3.9
			c-0.1,0.1-0.2,0.2-0.4,0.3c-0.7,0.1-1.4,0.1-2.1,0.2c0,0,0,0-0.1,0c0,0-0.1,0-0.1,0c-0.1-0.1-0.2-0.1-0.2-0.1
			c-0.2,0-0.3,0.2-0.4,0.3c-0.2,0.1-0.3,0.2-0.4,0.3c0,0.1,0.1,0.2,0.1,0.3c0,0.2-0.2,0.4-0.1,0.5C7.4,11.8,7.6,12,7.9,12
			c1.4,0.3,2.9,0.6,4.3,0.9c0.4,0.1,0.9,0.2,1.4,0.3c-0.1,0-0.2,0.1-0.2,0.1l0.1,0.1c0.4,0,0.9,0,1.3,0.1c1.1,0.2,2.1,0.4,3.1,0.8
			c0.7,0.2,0.9,0.7,0.4,1.4c0-0.3,0-0.5,0-0.7c0,0-0.1,0-0.1,0c-0.6,2.8-2.2,5.4-3,8.2c0,0-0.1,0-0.2,0c0,0,0,0,0,0
			c-0.1,0-0.3,0-0.2,0.3c-0.7-0.2-1.4-0.4-2.1-0.6c-0.6-0.1-1.2-0.2-1.9-0.2c0,0-0.1,0-0.1,0c0,0,0,0,0,0c-0.1,0-0.2,0-0.3,0
			c0,0,0,0,0,0C9.7,22.3,9,22.1,8.3,22c0,0,0,0-0.1,0c0,0,0,0,0,0c-0.1,0-0.1,0-0.2,0c-0.2,0-0.4,0-0.5-0.1c-0.1,0-0.1,0-0.1-0.1
			c0,0,0,0-0.1,0c-0.2,0-0.4-0.1-0.7-0.1c-0.1,0-0.2,0-0.3-0.1c0,0,0,0,0,0c-0.1,0-0.2,0-0.3-0.1c0,0,0,0-0.1,0c0,0,0,0-0.1,0l0,0
			c-0.1,0-0.1,0-0.2,0c0,0,0,0-0.1,0l0,0c-0.8-0.2-1.6-0.3-2.3-0.7c0.1-0.1,0.2-0.2,0.2-0.3c-1-0.3-1.3-0.5-1.3-1.7
			c-0.1-0.9-0.1-1.8-0.2-2.7c0-0.1,0-0.2,0-0.3c0,0-0.1,0-0.1,0v0.8c0,0-0.1,0-0.1,0c-0.1-0.7-0.3-1.4-0.4-2.2c0,0,0,0,0.1,0
			c0.5,0.5,0.9,1,1.4,1.5c0,0,0,0,0,0c-0.5-0.6-1-1.3-1.6-1.9c0,0,0.1-0.1,0.1-0.1c0.2,0.1,0.5,0.1,0.7,0.2c1.7,1.1,3.8,1.7,5.6,2.5
			c0.2,0.1,0.5,0.2,0.7,0.3c0,0,0,0,0,0c0.1,0,0.1,0,0.2,0s0.1,0,0.2,0c0.5,0.2,1,0.4,1.5,0.6c-0.1,0.1-0.1,0.2-0.1,0.3
			c0.1,0,0.3,0,0.4,0c0.6,0,1-0.3,1.5-0.6c0.5-0.3,0.9-0.7,1.3-1c-0.1-0.1-0.2-0.2-0.2-0.3c0.1-0.2,0.6,0,0.5-0.5
			c-0.1,0.1-0.3,0.1-0.4,0.2c0-0.1,0-0.2,0-0.2c0,0,0,0-0.1,0c0,0,0,0,0,0c-0.2,0.1-0.4,0.2-0.6,0.2c-0.2,0-0.4,0-0.6-0.1
			c-0.4-0.1-0.8-0.2-1.2-0.3c0,0,0-0.1,0-0.1c0.3,0,0.6,0,0.8,0.1c0.3,0,0.5,0.1,0.8,0.1c0,0,0-0.1,0-0.1c-0.5-0.1-0.9-0.2-1.4-0.3
			c-0.6-0.1-1.3-0.2-2-0.3c-0.8-0.1-1.6-0.2-2.4-0.4c-0.3-0.1-0.6-0.2-0.9-0.2c-0.8-0.1-1.7-0.4-2.5-0.6c0.1-0.1,0.2-0.1,0.3-0.1
			c-0.2,0.1-0.4,0.1-0.6,0.1c-0.2,0-0.4,0-0.6-0.2c-0.1-0.1-0.2-0.1-0.3-0.1c0,0-0.1,0-0.1,0c-0.1,0-0.2,0-0.3,0
			c-0.4-0.3-0.4-0.5-0.1-1.1C1.7,12.3,1.7,12.4,1.8,12.5L1.8,12.5z M12.3,9.9c0.6-1.2,1.2-2.4,1.8-3.5c0.1-0.2,0.3-0.3,0.5-0.4
			c0,0,0.1,0,0.1,0.1c0,0.2,0,0.3,0,0.4c-0.3,1-0.6,2-1,3c-0.1,0.3-0.3,0.5-0.6,0.5c0,0,0,0-0.1,0c-0.1,0-0.2,0-0.3,0
			C12.7,9.9,12.5,9.9,12.3,9.9L12.3,9.9z M17.3,6.2c0.3,0,0.7,0,1,0c0.2,0,0.4,0,0.6,0c1.5,0.1,3,0.3,4.5,0.4
			c0.8,0.1,1.6,0.1,2.4,0.2c0.5,0.1,1,0.2,1.5,0.3c0.1,0,0.3,0.1,0.4,0.1c0,0,0-0.1,0-0.1c-0.1-0.1-0.3-0.1-0.5-0.2c0,0,0,0,0,0
			c0.5,0,0.9,0,1.4,0.1c0,0.1,0,0.2,0.1,0.3c0.2-0.4,0.2-0.4-0.3-0.5c-0.4,0-0.8-0.1-1.2-0.1c0,0,0-0.1,0-0.1c0.5,0.1,1,0.1,1.6,0.2
			c0.1,0,0.1,0.2,0.1,0.3c0,0.4,0,0.8-0.1,1.3c0-0.1-0.1-0.1-0.1-0.2c-0.2,0.8-0.5,1.5-0.7,2.2c-0.1,0.4-0.2,0.8-0.6,1.1
			c0-0.1-0.1-0.1-0.2-0.2c-0.2,0.2-0.3,0.5-0.4,0.6c0,0.2,0,0.3,0,0.4c-0.1,0.1-0.3,0.1-0.5,0.1c0,0,0,0-0.1,0
			c-1.8-0.4-3.6-0.7-5.4-1.1c-0.5-0.1-1-0.3-1.5-0.4c-0.4-0.1-0.8-0.1-1.2-0.1l0,0c-0.1,0-0.1,0.1-0.2,0.1c-0.1,0.3-0.1,0.5,0.1,0.8
			c0.2,0.4,0.5,0.7,0.7,1c0.3,0.3,0.6,0.6,0.9,0.8c0.2-0.1,0.3-0.2,0.4-0.2c0.5,0,0.9,0,1.4-0.1c1-0.1,2.1-0.2,3.1-0.3
			c0.4-0.1,0.8-0.2,1.2-0.2c0,0,0,0,0,0c0.1,0,0.3,0.1,0.4,0.1c0.2,0.8,0.5,1.7,0.7,2.5c0.1,0.3,0.1,0.5-0.1,0.7
			c-0.1,0.1-0.1,0.2-0.1,0.2c0,0.1,0,0.2,0,0.3c0.1,0,0.2,0,0.3,0c0.1,0,0.2-0.1,0.4-0.2c-0.1,0.3,0.2,0.6-0.2,0.9
			c-0.1,0,0,0.2,0,0.5c0.1-0.2,0.2-0.3,0.3-0.5c0.1,0.3,0.2,0.5,0.3,0.8h-1c0,0,0-0.1,0-0.2C24,17.6,21.4,17,18.7,17
			c-0.1,0-0.1,0-0.2,0c0.1-0.2,0.2-0.4,0.2-0.6c0-0.1,0.1-0.3,0-0.5c0-0.2,0.3-1.4,0.5-1.6c-0.4-0.2-0.7-0.4-1.1-0.5
			c-1.2-0.3-2.4-0.6-3.6-0.9c-0.2,0-0.3-0.1-0.6-0.1c0.1-0.2,0.3-0.4,0.4-0.6c0.4-0.4,0.6-0.9,0.5-1.4c-0.1-0.3,0-0.5,0.4-0.6
			c0.3-0.1,0.3-0.3,0.2-0.6c-0.1-0.2-0.1-0.4,0-0.6c0.1-0.3,0.3-0.6,0.4-1c0.2-0.6,0.5-1.1,0.7-1.6c0.1-0.2,0.2-0.3,0.5-0.3
			c0,0,0,0,0,0C17.1,6.2,17.2,6.2,17.3,6.2L17.3,6.2z M19.6,13c-0.1,0-0.4-0.1-0.4-0.2c-0.3-0.4-0.6-0.9-0.8-1.4
			c-0.1-0.3-0.1-0.4,0.2-0.4c0.1,0,0.1,0,0.2,0c1.3,0.2,2.6,0.5,3.9,0.7c0.8,0.2,1.7,0.4,2.5,0.6c0.1,0,0.2,0.1,0.3,0.1
			c0,0,0,0.1,0,0.1c-0.6,0-1.3,0.1-2,0.1c-0.6,0-1.2,0.1-1.8,0.2C21,12.9,20.3,13,19.6,13C19.6,13,19.6,13,19.6,13L19.6,13z M8,11.8
			c-0.7-0.2-0.7-0.2-0.5-0.5C7.8,11.5,7.9,11.7,8,11.8L8,11.8z M5.4,14.7c-0.2-0.1-0.5-0.2-0.8-0.3c0-0.1,0-0.1,0.1-0.1
			c0.2,0.1,0.5,0.2,0.8,0.2C5.4,14.5,5.4,14.6,5.4,14.7L5.4,14.7z M7.7,15c-0.8-0.1-1.6-0.2-2.2-0.4c0.1,0,0.1,0,0.2,0
			C6.2,14.6,7.6,14.8,7.7,15L7.7,15z M4.8,15.2c-0.3-0.1-0.6-0.3-1-0.4l0.1-0.1c0.3,0.1,0.6,0.3,1,0.4C4.8,15.1,4.8,15.1,4.8,15.2
			L4.8,15.2z M7.8,16.1c-0.8-0.4-1.6-0.8-2.3-1.1c0,0,0-0.1,0.1-0.1c0.8,0.4,1.6,0.8,2.3,1.1C7.9,16,7.9,16.1,7.8,16.1L7.8,16.1z
			 M7.8,15.6c-0.5-0.1-0.9-0.3-1.4-0.5c0,0,0-0.1,0-0.1c0.4,0.1,0.9,0.1,1.3,0.2c0.1,0,0.1,0.2,0.2,0.3C7.9,15.5,7.9,15.6,7.8,15.6
			L7.8,15.6z M10.9,17.3c-0.1,0-0.3,0-0.4-0.1c-0.9-0.2-1.7-0.6-2.4-1.2C8,15.9,8,15.6,7.9,15.4c0,0,0.1-0.1,0.1-0.1
			c0.7,0.1,1.4,0.3,2.1,0.4c0,0,0,0,0,0.1c-0.6-0.1-1.2-0.1-1.8-0.2c0,0,0,0.1,0,0.1c0.5,0.1,1.1,0.1,1.6,0.2
			c0.6,0.1,1.2,0.2,1.8,0.4c0.3,0.1,0.4,0.3,0.2,0.5c-0.3,0.2-0.6,0.4-0.9,0.5C11,17.3,10.9,17.3,10.9,17.3L10.9,17.3z M24.3,18.3
			c0.3,0,0.4-0.1,0.6-0.1c0.7,0,1.4-0.1,2.1-0.1c0.3,0,0.6,0,0.8,0c0.1-0.2,0.1-0.3,0.2-0.6c-0.1-0.1-0.2-0.2-0.3-0.4
			c-0.4-0.5-0.5-0.7,0.1-1.2c0.7,1.1,1.5,2.1,2.2,3.2c0,0-0.1,0-0.1,0.1c-0.2-0.2-0.4-0.4-0.6-0.6c0,0,0,0-0.1,0
			c0.1,0.1,0.2,0.3,0.3,0.5c0.2,0.2,0.5,0.4,0.6,0.7c0.1,0.1,0.1,0.3,0.1,0.5c0,0-0.1,0-0.1,0c-0.2-0.2-0.3-0.4-0.5-0.5
			c0,0,0,0-0.1,0c0.1,0.2,0.2,0.4,0.3,0.6c-0.6,0.3-1.2,0.7-1.9,1c-2.2,0.8-4.4,1.6-6.6,2.4c-0.8,0.3-1.5,0.6-2.2,0.9
			c-0.3,0.1-0.5,0.3-0.7,0.5s-0.5,0.3-0.8,0.3c-0.1,0-0.2,0-0.3,0c-0.1,0-0.2-0.1-0.3-0.2c-0.4-0.5-0.8-1-1.2-1.5
			c0.1,0,0.2-0.1,0.2-0.1c0.2-0.1,0.3-0.2,0.2-0.4c0,0-0.1-0.1,0-0.2c0.2-0.5,0.4-1,0.8-1.4c-0.1-0.1-0.3-0.2-0.3-0.3
			c0.1-0.3,0.1-0.6,0.4-0.8c0.3-0.2,0.7-0.4,1-0.5c0,0,0,0,0,0c0.1,0,0.2,0.1,0.3,0.1c0.3,0.2,0.5,0.4,0.8,0.6
			c0.1,0,0.2,0.1,0.2,0.1c0.1,0,0.3,0,0.4-0.1c1-0.6,1.9-1.3,2.9-1.9c0.2-0.1,0.5-0.3,0.7-0.4c0,0,0.1,0,0.2,0
			C23.9,18.1,24.2,18.2,24.3,18.3L24.3,18.3z M18.2,18.4c0-0.1-0.2-0.2-0.1-0.3c0.1-0.2,0.2-0.5,0.3-0.7c0-0.1,0.2-0.2,0.2-0.2
			c0,0,0,0,0,0c0.1,0,0.1,0.2,0.2,0.2c-0.1,0.3-0.1,0.6-0.2,0.8C18.6,18.3,18.4,18.4,18.2,18.4L18.2,18.4z M18.7,19.2
			C18.7,19.2,18.8,19.2,18.7,19.2c0.1-0.6,0.2-1.1,0.3-1.5c0-0.2,0.1-0.3,0.4-0.3c0,0,0.1,0,0.1,0c0.9,0.1,1.8,0.2,2.8,0.3
			c0,0,0,0.1,0,0.1c-0.4,0.1-0.8,0.2-1.1,0.3c0,0,0,0.1,0,0.1c0.6,0,1.1-0.1,1.7-0.1c0,0,0,0.1,0,0.1c-0.1,0-0.1,0.1-0.2,0.2
			c-1,0.6-2,1.2-3,1.8c-0.1,0.1-0.2,0.1-0.3,0.1c-0.1,0-0.2-0.1-0.3-0.2c-0.1-0.2-0.2-0.3-0.4-0.5c-0.1-0.2-0.2-0.3-0.4-0.3
			c-0.1,0-0.2,0-0.3,0.1c-0.2,0.1-0.5,0.3-0.8,0.5c0.1-0.5,0.6-0.5,0.8-0.7c0.1-0.1,0.2-0.1,0.3-0.1C18.4,19,18.6,19.2,18.7,19.2
			L18.7,19.2z M22.9,17.7c-0.4-0.1-0.8-0.1-1.3-0.2c0,0,0-0.1,0-0.1c0.4,0,0.8,0.1,1.3,0.2C23,17.6,22.9,17.6,22.9,17.7L22.9,17.7z
			 M16.2,21c-0.1,0-0.1,0-0.2-0.1c0.4-1,0.8-1.9,1.2-2.9c0,0,0.1,0,0.1,0C17,19.1,16.6,20,16.2,21L16.2,21z M29.3,21.1
			c0,0-0.1-0.1-0.1-0.1c0.2-0.2,0.4-0.4,0.6-0.6c0,0,0.1,0.1,0.1,0.1C29.7,20.7,29.5,20.9,29.3,21.1L29.3,21.1z M3.1,20.9
			c-0.2,0-0.4-0.1-0.4-0.5c0.3,0.1,0.5,0.3,0.7,0.4c0,0,0,0.1-0.1,0.1C3.2,20.8,3.2,20.9,3.1,20.9L3.1,20.9z M14.7,23.7
			c-0.2,0-0.3-0.2-0.5-0.3c0.2,0,0.5,0.1,0.8,0.1C14.9,23.6,14.8,23.7,14.7,23.7L14.7,23.7z"/>
	</g>
	<path class="st1" d="M31,23c-0.3,0-0.5,0.1-0.7,0.3c-0.2,0.2-0.5,0.4-0.7,0.4c-1.2,0.3-2.4,0.6-3.5,0.9c-1.8,0.5-3.5,1-5.2,1.6
		c-0.2,0.1-0.4,0.3-0.6,0.3c-0.5,0.1-0.9,0.1-1.4,0.2c-0.2,0-0.5,0.1-0.7,0.2c0,0,0,0.1,0,0.1c0.4-0.1,0.8-0.2,1.2-0.3
		c-0.8,0.3-1.6,0.7-2.6,0.6c-0.4,0-0.8-0.2-1.1-0.5c-0.2-0.1-0.4-0.3-0.5-0.4c-0.2-0.1-0.4-0.3-0.4-0.4c-0.2-0.6-0.7-0.8-1.2-0.9
		c-1.7-0.4-3.4-0.8-5.2-1.2c-0.2,0-0.4,0-0.6-0.1c-0.7-0.2-1.4-0.3-2.2-0.5c-1-0.2-2-0.4-3-0.7c-0.5-0.1-0.9-0.3-1.3-0.4
		c0,0,0-0.1,0-0.1c0.5,0,1.2-0.1,1.6,0.1c0.8,0.4,1.7,0.3,2.5,0.5c0.8,0.2,1.7,0.3,2.6,0.5c1.2,0.2,2.4,0.6,3.6,0.8
		c0.8,0.2,1.7,0.4,2.5,0.5c0.4,0.1,0.7,0.2,1,0.5c0.5,0.5,1.1,1,1.7,1.5c0.1,0.1,0.3,0.1,0.5,0c1.6-0.4,3.2-0.9,4.9-1.3
		c1.1-0.3,2.2-0.6,3.3-0.9c1-0.4,2-0.9,3.1-1.2c0.9-0.3,1.8-0.7,2.8-0.9 M31.2,22.6c0,0,0,0.1,0,0.1 M30.2,23.1
		c-0.4,0.2-0.8,0.4-1.2,0.6C29.5,23.7,29.9,23.5,30.2,23.1z"/>
	<g>
		<path class="st0" d="M3.5,3.1C3.2,3.7,3,4.3,2.7,4.9c0,0-0.1,0-0.1,0c0.1-0.4,0.2-0.8,0.3-1.2C3,3.5,3.1,3.3,3.2,3.1
			C3.3,2.9,3.4,2.9,3.5,3.1z"/>
		<path class="st0" d="M3.4,3C3.3,3,3.2,3,3.2,3.1C3.1,3.3,3,3.5,2.9,3.7C2.8,4.1,2.7,4.5,2.6,4.9c0,0,0.1,0,0.1,0
			C3,4.3,3.2,3.7,3.5,3.1C3.5,3,3.4,3,3.4,3L3.4,3z"/>
	</g>
	<g>
		<path class="st0" d="M15,8.6C14.8,9,14.6,9.5,14.3,10C14.2,9.7,14.4,9.4,15,8.6z"/>
		<path class="st0" d="M15,8.6c-0.6,0.8-0.8,1.1-0.6,1.4C14.6,9.5,14.8,9,15,8.6L15,8.6z"/>
	</g>
	<g>
		<path class="st0" d="M10,4.6c0.8,0.1,1.6,0.2,2.4,0.3c0,0.1-0.1,0.1-0.1,0.1c-0.7-0.1-1.4-0.2-2.1-0.3C10.1,4.7,10.1,4.6,10,4.6z"
			/>
		<path class="st0" d="M10,4.6c0.1,0,0.1,0.1,0.1,0.1c0.7,0.1,1.4,0.2,2.1,0.3l0,0c0,0,0.1-0.1,0.1-0.1C11.6,4.8,10.8,4.7,10,4.6
			L10,4.6z"/>
	</g>
	<g>
		<path class="st0" d="M4.4,18.4c-0.4-0.6-0.8-1.3-1.2-1.9c0,0,0.1,0,0.1,0C3.7,17.1,4.1,17.7,4.4,18.4C4.5,18.4,4.4,18.4,4.4,18.4z
			"/>
		<path class="st0" d="M3.4,16.5C3.3,16.5,3.3,16.5,3.4,16.5c0.3,0.7,0.7,1.3,1.1,1.9c0,0,0.1,0,0.1,0C4.1,17.7,3.7,17.1,3.4,16.5
			L3.4,16.5z"/>
	</g>
</g>
</svg>
